<mxfile host="65bd71144e">
    <diagram id="N561wu2AL19kLFNyPvYb" name="Page-1">
        <mxGraphModel dx="754" dy="1837" grid="0" gridSize="10" guides="0" tooltips="1" connect="0" arrows="1" fold="1" page="0" pageScale="1" pageWidth="827" pageHeight="1169" background="none" math="0" shadow="0">
            <root>
                <mxCell id="0"/>
                <mxCell id="1" parent="0"/>
                <mxCell id="f6Lb4-4thSL-1vpuTnt4-121" value="Inventory_logs" style="whiteSpace=wrap;html=1;align=center;" parent="1" vertex="1">
                    <mxGeometry x="652" y="101" width="99" height="39" as="geometry"/>
                </mxCell>
                <mxCell id="f6Lb4-4thSL-1vpuTnt4-122" value="auth_logs" style="whiteSpace=wrap;html=1;align=center;" parent="1" vertex="1">
                    <mxGeometry x="656" y="22" width="90" height="39" as="geometry"/>
                </mxCell>
                <mxCell id="f6Lb4-4thSL-1vpuTnt4-187" value="" style="group" parent="1" vertex="1" connectable="0">
                    <mxGeometry x="815" y="-1177" width="324" height="289" as="geometry"/>
                </mxCell>
                <mxCell id="f6Lb4-4thSL-1vpuTnt4-115" value="users" style="whiteSpace=wrap;html=1;align=center;fillColor=#a20025;fontColor=#ffffff;strokeColor=#6F0000;" parent="f6Lb4-4thSL-1vpuTnt4-187" vertex="1">
                    <mxGeometry x="108" y="245.14396887159532" width="90" height="43.856031128404666" as="geometry"/>
                </mxCell>
                <mxCell id="f6Lb4-4thSL-1vpuTnt4-130" value="&lt;u&gt;user_id&lt;/u&gt;" style="ellipse;whiteSpace=wrap;html=1;align=center;" parent="f6Lb4-4thSL-1vpuTnt4-187" vertex="1">
                    <mxGeometry x="5" y="163.0544747081712" width="61" height="30.361867704280154" as="geometry"/>
                </mxCell>
                <mxCell id="f6Lb4-4thSL-1vpuTnt4-136" value="" style="endArrow=none;html=1;rounded=0;exitX=0.993;exitY=0.543;exitDx=0;exitDy=0;exitPerimeter=0;entryX=0.279;entryY=-0.02;entryDx=0;entryDy=0;entryPerimeter=0;" parent="f6Lb4-4thSL-1vpuTnt4-187" source="f6Lb4-4thSL-1vpuTnt4-130" target="f6Lb4-4thSL-1vpuTnt4-115" edge="1">
                    <mxGeometry relative="1" as="geometry">
                        <mxPoint x="-35" y="201.28793774319067" as="sourcePoint"/>
                        <mxPoint x="244" y="246.26848249027236" as="targetPoint"/>
                        <Array as="points"/>
                    </mxGeometry>
                </mxCell>
                <mxCell id="f6Lb4-4thSL-1vpuTnt4-139" value="user_code" style="ellipse;whiteSpace=wrap;html=1;align=center;" parent="f6Lb4-4thSL-1vpuTnt4-187" vertex="1">
                    <mxGeometry y="115.8249027237354" width="65" height="32.61089494163424" as="geometry"/>
                </mxCell>
                <mxCell id="f6Lb4-4thSL-1vpuTnt4-140" value="full_name" style="ellipse;whiteSpace=wrap;html=1;align=center;" parent="f6Lb4-4thSL-1vpuTnt4-187" vertex="1">
                    <mxGeometry x="14" y="71.96887159533074" width="77" height="34.85992217898833" as="geometry"/>
                </mxCell>
                <mxCell id="f6Lb4-4thSL-1vpuTnt4-142" value="" style="endArrow=none;html=1;rounded=0;exitX=0.997;exitY=0.494;exitDx=0;exitDy=0;exitPerimeter=0;entryX=0.341;entryY=-0.006;entryDx=0;entryDy=0;entryPerimeter=0;" parent="f6Lb4-4thSL-1vpuTnt4-187" source="f6Lb4-4thSL-1vpuTnt4-139" target="f6Lb4-4thSL-1vpuTnt4-115" edge="1">
                    <mxGeometry relative="1" as="geometry">
                        <mxPoint x="115" y="113.57587548638132" as="sourcePoint"/>
                        <mxPoint x="211" y="120.32295719844358" as="targetPoint"/>
                        <Array as="points"/>
                    </mxGeometry>
                </mxCell>
                <mxCell id="f6Lb4-4thSL-1vpuTnt4-146" value="" style="endArrow=none;html=1;rounded=0;entryX=0.409;entryY=0.023;entryDx=0;entryDy=0;entryPerimeter=0;exitX=0.889;exitY=0.896;exitDx=0;exitDy=0;exitPerimeter=0;" parent="f6Lb4-4thSL-1vpuTnt4-187" source="f6Lb4-4thSL-1vpuTnt4-140" target="f6Lb4-4thSL-1vpuTnt4-115" edge="1">
                    <mxGeometry relative="1" as="geometry">
                        <mxPoint x="89" y="114.70038910505836" as="sourcePoint"/>
                        <mxPoint x="151" y="199.03891050583658" as="targetPoint"/>
                        <Array as="points"/>
                    </mxGeometry>
                </mxCell>
                <mxCell id="f6Lb4-4thSL-1vpuTnt4-148" value="phone_no" style="ellipse;whiteSpace=wrap;html=1;align=center;" parent="f6Lb4-4thSL-1vpuTnt4-187" vertex="1">
                    <mxGeometry x="58" y="21.365758754863812" width="66" height="31.4863813229572" as="geometry"/>
                </mxCell>
                <mxCell id="f6Lb4-4thSL-1vpuTnt4-149" value="dob" style="ellipse;whiteSpace=wrap;html=1;align=center;" parent="f6Lb4-4thSL-1vpuTnt4-187" vertex="1">
                    <mxGeometry x="211" y="46.10505836575876" width="66" height="31.4863813229572" as="geometry"/>
                </mxCell>
                <mxCell id="f6Lb4-4thSL-1vpuTnt4-150" value="created_at" style="ellipse;whiteSpace=wrap;html=1;align=center;" parent="f6Lb4-4thSL-1vpuTnt4-187" vertex="1">
                    <mxGeometry x="227" y="82.08949416342412" width="66" height="31.4863813229572" as="geometry"/>
                </mxCell>
                <mxCell id="f6Lb4-4thSL-1vpuTnt4-151" value="hash_pwd" style="ellipse;whiteSpace=wrap;html=1;align=center;" parent="f6Lb4-4thSL-1vpuTnt4-187" vertex="1">
                    <mxGeometry x="229" y="121.44747081712062" width="66" height="31.4863813229572" as="geometry"/>
                </mxCell>
                <mxCell id="f6Lb4-4thSL-1vpuTnt4-152" value="user_preference&lt;br&gt;&lt;font style=&quot;font-size: 8px;&quot;&gt;(jsonb)&lt;/font&gt;" style="ellipse;whiteSpace=wrap;html=1;align=center;" parent="f6Lb4-4thSL-1vpuTnt4-187" vertex="1">
                    <mxGeometry x="217" y="165.30350194552528" width="107" height="43.856031128404666" as="geometry"/>
                </mxCell>
                <mxCell id="f6Lb4-4thSL-1vpuTnt4-153" value="email" style="ellipse;whiteSpace=wrap;html=1;align=center;" parent="f6Lb4-4thSL-1vpuTnt4-187" vertex="1">
                    <mxGeometry x="149" y="17.992217898832685" width="66" height="31.4863813229572" as="geometry"/>
                </mxCell>
                <mxCell id="f6Lb4-4thSL-1vpuTnt4-155" value="" style="endArrow=none;html=1;rounded=0;entryX=0.479;entryY=-0.006;entryDx=0;entryDy=0;entryPerimeter=0;exitX=0.53;exitY=1.02;exitDx=0;exitDy=0;exitPerimeter=0;" parent="f6Lb4-4thSL-1vpuTnt4-187" source="f6Lb4-4thSL-1vpuTnt4-148" target="f6Lb4-4thSL-1vpuTnt4-115" edge="1">
                    <mxGeometry relative="1" as="geometry">
                        <mxPoint x="153" y="29.237354085603112" as="sourcePoint"/>
                        <mxPoint x="200" y="168.6770428015564" as="targetPoint"/>
                        <Array as="points"/>
                    </mxGeometry>
                </mxCell>
                <mxCell id="f6Lb4-4thSL-1vpuTnt4-156" value="" style="endArrow=none;html=1;rounded=0;" parent="f6Lb4-4thSL-1vpuTnt4-187" source="f6Lb4-4thSL-1vpuTnt4-153" target="f6Lb4-4thSL-1vpuTnt4-115" edge="1">
                    <mxGeometry relative="1" as="geometry">
                        <mxPoint x="130" y="125.9455252918288" as="sourcePoint"/>
                        <mxPoint x="181" y="265.3852140077821" as="targetPoint"/>
                        <Array as="points"/>
                    </mxGeometry>
                </mxCell>
                <mxCell id="f6Lb4-4thSL-1vpuTnt4-158" value="" style="endArrow=none;html=1;rounded=0;exitX=0.051;exitY=0.694;exitDx=0;exitDy=0;exitPerimeter=0;" parent="f6Lb4-4thSL-1vpuTnt4-187" source="f6Lb4-4thSL-1vpuTnt4-149" target="f6Lb4-4thSL-1vpuTnt4-115" edge="1">
                    <mxGeometry relative="1" as="geometry">
                        <mxPoint x="215" y="61.84824902723735" as="sourcePoint"/>
                        <mxPoint x="185" y="219.28015564202335" as="targetPoint"/>
                        <Array as="points"/>
                    </mxGeometry>
                </mxCell>
                <mxCell id="f6Lb4-4thSL-1vpuTnt4-159" value="" style="endArrow=none;html=1;rounded=0;exitX=-0.037;exitY=0.73;exitDx=0;exitDy=0;exitPerimeter=0;" parent="f6Lb4-4thSL-1vpuTnt4-187" source="f6Lb4-4thSL-1vpuTnt4-150" target="f6Lb4-4thSL-1vpuTnt4-115" edge="1">
                    <mxGeometry relative="1" as="geometry">
                        <mxPoint x="234" y="85.46303501945525" as="sourcePoint"/>
                        <mxPoint x="173" y="228.27626459143968" as="targetPoint"/>
                        <Array as="points"/>
                    </mxGeometry>
                </mxCell>
                <mxCell id="f6Lb4-4thSL-1vpuTnt4-160" value="" style="endArrow=none;html=1;rounded=0;exitX=0.008;exitY=0.575;exitDx=0;exitDy=0;exitPerimeter=0;" parent="f6Lb4-4thSL-1vpuTnt4-187" source="f6Lb4-4thSL-1vpuTnt4-151" target="f6Lb4-4thSL-1vpuTnt4-115" edge="1">
                    <mxGeometry relative="1" as="geometry">
                        <mxPoint x="238" y="157.431906614786" as="sourcePoint"/>
                        <mxPoint x="187" y="253.01556420233464" as="targetPoint"/>
                        <Array as="points"/>
                    </mxGeometry>
                </mxCell>
                <mxCell id="f6Lb4-4thSL-1vpuTnt4-161" value="" style="endArrow=none;html=1;rounded=0;entryX=0.719;entryY=0.003;entryDx=0;entryDy=0;entryPerimeter=0;exitX=0.006;exitY=0.513;exitDx=0;exitDy=0;exitPerimeter=0;" parent="f6Lb4-4thSL-1vpuTnt4-187" source="f6Lb4-4thSL-1vpuTnt4-152" target="f6Lb4-4thSL-1vpuTnt4-115" edge="1">
                    <mxGeometry relative="1" as="geometry">
                        <mxPoint x="252" y="160.8054474708171" as="sourcePoint"/>
                        <mxPoint x="200" y="219.28015564202335" as="targetPoint"/>
                        <Array as="points"/>
                    </mxGeometry>
                </mxCell>
                <mxCell id="f6Lb4-4thSL-1vpuTnt4-189" value="" style="group" parent="1" vertex="1" connectable="0">
                    <mxGeometry x="1213" y="-919" width="353" height="335" as="geometry"/>
                </mxCell>
                <mxCell id="f6Lb4-4thSL-1vpuTnt4-116" value="inventory_details" style="whiteSpace=wrap;html=1;align=center;fillColor=#a20025;fontColor=#ffffff;strokeColor=#6F0000;" parent="f6Lb4-4thSL-1vpuTnt4-189" vertex="1">
                    <mxGeometry x="140" y="295" width="100" height="40" as="geometry"/>
                </mxCell>
                <mxCell id="f6Lb4-4thSL-1vpuTnt4-163" value="inventory_id" style="ellipse;whiteSpace=wrap;html=1;align=center;fontStyle=4;" parent="f6Lb4-4thSL-1vpuTnt4-189" vertex="1">
                    <mxGeometry x="19" y="232" width="100" height="40" as="geometry"/>
                </mxCell>
                <mxCell id="f6Lb4-4thSL-1vpuTnt4-164" value="" style="endArrow=none;html=1;rounded=0;exitX=0.943;exitY=0.694;exitDx=0;exitDy=0;exitPerimeter=0;" parent="f6Lb4-4thSL-1vpuTnt4-189" source="f6Lb4-4thSL-1vpuTnt4-163" target="f6Lb4-4thSL-1vpuTnt4-116" edge="1">
                    <mxGeometry relative="1" as="geometry">
                        <mxPoint x="112" y="245" as="sourcePoint"/>
                        <mxPoint x="272" y="245" as="targetPoint"/>
                    </mxGeometry>
                </mxCell>
                <mxCell id="f6Lb4-4thSL-1vpuTnt4-166" value="" style="endArrow=none;html=1;rounded=0;exitX=0.963;exitY=0.664;exitDx=0;exitDy=0;exitPerimeter=0;" parent="f6Lb4-4thSL-1vpuTnt4-189" source="f6Lb4-4thSL-1vpuTnt4-170" target="f6Lb4-4thSL-1vpuTnt4-116" edge="1">
                    <mxGeometry relative="1" as="geometry">
                        <mxPoint x="98.29999999999995" y="205.55999999999995" as="sourcePoint"/>
                        <mxPoint x="198" y="307" as="targetPoint"/>
                    </mxGeometry>
                </mxCell>
                <mxCell id="f6Lb4-4thSL-1vpuTnt4-168" value="" style="endArrow=none;html=1;rounded=0;exitX=0.977;exitY=0.472;exitDx=0;exitDy=0;exitPerimeter=0;" parent="f6Lb4-4thSL-1vpuTnt4-189" source="f6Lb4-4thSL-1vpuTnt4-174" target="f6Lb4-4thSL-1vpuTnt4-116" edge="1">
                    <mxGeometry relative="1" as="geometry">
                        <mxPoint x="128.70000000000027" y="146.88" as="sourcePoint"/>
                        <mxPoint x="233" y="237" as="targetPoint"/>
                    </mxGeometry>
                </mxCell>
                <mxCell id="f6Lb4-4thSL-1vpuTnt4-171" value="" style="endArrow=none;html=1;rounded=0;exitX=0.963;exitY=0.664;exitDx=0;exitDy=0;exitPerimeter=0;" parent="f6Lb4-4thSL-1vpuTnt4-189" target="f6Lb4-4thSL-1vpuTnt4-170" edge="1">
                    <mxGeometry relative="1" as="geometry">
                        <mxPoint x="98.29999999999995" y="205.55999999999995" as="sourcePoint"/>
                        <mxPoint x="173" y="295" as="targetPoint"/>
                    </mxGeometry>
                </mxCell>
                <mxCell id="f6Lb4-4thSL-1vpuTnt4-170" value="inventory_name" style="ellipse;whiteSpace=wrap;html=1;align=center;" parent="f6Lb4-4thSL-1vpuTnt4-189" vertex="1">
                    <mxGeometry x="5" y="183" width="100" height="40" as="geometry"/>
                </mxCell>
                <mxCell id="f6Lb4-4thSL-1vpuTnt4-174" value="user_code" style="ellipse;whiteSpace=wrap;html=1;align=center;" parent="f6Lb4-4thSL-1vpuTnt4-189" vertex="1">
                    <mxGeometry y="138" width="100" height="40" as="geometry"/>
                </mxCell>
                <mxCell id="f6Lb4-4thSL-1vpuTnt4-176" value="" style="endArrow=none;html=1;rounded=0;exitX=0.887;exitY=0.836;exitDx=0;exitDy=0;exitPerimeter=0;" parent="f6Lb4-4thSL-1vpuTnt4-189" source="f6Lb4-4thSL-1vpuTnt4-177" target="f6Lb4-4thSL-1vpuTnt4-116" edge="1">
                    <mxGeometry relative="1" as="geometry">
                        <mxPoint x="140.29999999999995" y="114.55999999999995" as="sourcePoint"/>
                        <mxPoint x="215" y="204" as="targetPoint"/>
                    </mxGeometry>
                </mxCell>
                <mxCell id="f6Lb4-4thSL-1vpuTnt4-177" value="no_of_products" style="ellipse;whiteSpace=wrap;html=1;align=center;" parent="f6Lb4-4thSL-1vpuTnt4-189" vertex="1">
                    <mxGeometry x="18" y="90" width="100" height="40" as="geometry"/>
                </mxCell>
                <mxCell id="f6Lb4-4thSL-1vpuTnt4-179" value="" style="endArrow=none;html=1;rounded=0;exitX=0.574;exitY=0.972;exitDx=0;exitDy=0;exitPerimeter=0;entryX=0.442;entryY=0.003;entryDx=0;entryDy=0;entryPerimeter=0;" parent="f6Lb4-4thSL-1vpuTnt4-189" source="f6Lb4-4thSL-1vpuTnt4-180" target="f6Lb4-4thSL-1vpuTnt4-116" edge="1">
                    <mxGeometry relative="1" as="geometry">
                        <mxPoint x="191.29999999999995" y="73.55999999999995" as="sourcePoint"/>
                        <mxPoint x="232" y="254" as="targetPoint"/>
                    </mxGeometry>
                </mxCell>
                <mxCell id="f6Lb4-4thSL-1vpuTnt4-180" value="total_volume" style="ellipse;whiteSpace=wrap;html=1;align=center;" parent="f6Lb4-4thSL-1vpuTnt4-189" vertex="1">
                    <mxGeometry x="63" y="41" width="100" height="40" as="geometry"/>
                </mxCell>
                <mxCell id="f6Lb4-4thSL-1vpuTnt4-181" value="" style="endArrow=none;html=1;rounded=0;" parent="f6Lb4-4thSL-1vpuTnt4-189" source="f6Lb4-4thSL-1vpuTnt4-182" target="f6Lb4-4thSL-1vpuTnt4-116" edge="1">
                    <mxGeometry relative="1" as="geometry">
                        <mxPoint x="257.29999999999995" y="36.559999999999945" as="sourcePoint"/>
                        <mxPoint x="250" y="258" as="targetPoint"/>
                    </mxGeometry>
                </mxCell>
                <mxCell id="f6Lb4-4thSL-1vpuTnt4-182" value="products_list" style="ellipse;whiteSpace=wrap;html=1;align=center;" parent="f6Lb4-4thSL-1vpuTnt4-189" vertex="1">
                    <mxGeometry x="131" width="100" height="40" as="geometry"/>
                </mxCell>
                <mxCell id="f6Lb4-4thSL-1vpuTnt4-183" value="" style="endArrow=none;html=1;rounded=0;" parent="f6Lb4-4thSL-1vpuTnt4-189" source="f6Lb4-4thSL-1vpuTnt4-184" target="f6Lb4-4thSL-1vpuTnt4-116" edge="1">
                    <mxGeometry relative="1" as="geometry">
                        <mxPoint x="331.29999999999995" y="67.55999999999995" as="sourcePoint"/>
                        <mxPoint x="255.37184115523473" y="316" as="targetPoint"/>
                    </mxGeometry>
                </mxCell>
                <mxCell id="f6Lb4-4thSL-1vpuTnt4-184" value="inventory_worth" style="ellipse;whiteSpace=wrap;html=1;align=center;" parent="f6Lb4-4thSL-1vpuTnt4-189" vertex="1">
                    <mxGeometry x="195" y="38" width="100" height="40" as="geometry"/>
                </mxCell>
                <mxCell id="f6Lb4-4thSL-1vpuTnt4-185" value="" style="endArrow=none;html=1;rounded=0;entryX=0.57;entryY=0.017;entryDx=0;entryDy=0;entryPerimeter=0;" parent="f6Lb4-4thSL-1vpuTnt4-189" source="f6Lb4-4thSL-1vpuTnt4-186" target="f6Lb4-4thSL-1vpuTnt4-116" edge="1">
                    <mxGeometry relative="1" as="geometry">
                        <mxPoint x="389.29999999999995" y="110.55999999999995" as="sourcePoint"/>
                        <mxPoint x="250" y="329.7599999999999" as="targetPoint"/>
                    </mxGeometry>
                </mxCell>
                <mxCell id="f6Lb4-4thSL-1vpuTnt4-186" value="last_update" style="ellipse;whiteSpace=wrap;html=1;align=center;" parent="f6Lb4-4thSL-1vpuTnt4-189" vertex="1">
                    <mxGeometry x="253" y="81" width="100" height="40" as="geometry"/>
                </mxCell>
                <mxCell id="WDstANngcAevgCWSg9io-105" value="user_code" style="ellipse;whiteSpace=wrap;html=1;align=center;" parent="1" vertex="1">
                    <mxGeometry x="814" y="70" width="89" height="31" as="geometry"/>
                </mxCell>
                <mxCell id="WDstANngcAevgCWSg9io-106" value="" style="endArrow=none;html=1;rounded=0;" parent="1" source="WDstANngcAevgCWSg9io-105" target="f6Lb4-4thSL-1vpuTnt4-121" edge="1">
                    <mxGeometry relative="1" as="geometry">
                        <mxPoint x="550" y="-245" as="sourcePoint"/>
                        <mxPoint x="762" y="112" as="targetPoint"/>
                    </mxGeometry>
                </mxCell>
                <mxCell id="WDstANngcAevgCWSg9io-107" value="user_code" style="ellipse;whiteSpace=wrap;html=1;align=center;" parent="1" vertex="1">
                    <mxGeometry x="806" y="18" width="89" height="31" as="geometry"/>
                </mxCell>
                <mxCell id="WDstANngcAevgCWSg9io-108" value="" style="endArrow=none;html=1;rounded=0;" parent="1" source="WDstANngcAevgCWSg9io-107" target="f6Lb4-4thSL-1vpuTnt4-122" edge="1">
                    <mxGeometry relative="1" as="geometry">
                        <mxPoint x="549" y="-326" as="sourcePoint"/>
                        <mxPoint x="761" y="31" as="targetPoint"/>
                    </mxGeometry>
                </mxCell>
                <mxCell id="WDstANngcAevgCWSg9io-121" value="inventory_id" style="ellipse;whiteSpace=wrap;html=1;align=center;" parent="1" vertex="1">
                    <mxGeometry x="821" y="104" width="89" height="31" as="geometry"/>
                </mxCell>
                <mxCell id="WDstANngcAevgCWSg9io-122" value="" style="endArrow=none;html=1;rounded=0;" parent="1" source="WDstANngcAevgCWSg9io-121" target="f6Lb4-4thSL-1vpuTnt4-121" edge="1">
                    <mxGeometry relative="1" as="geometry">
                        <mxPoint x="557" y="-211" as="sourcePoint"/>
                        <mxPoint x="764" y="118" as="targetPoint"/>
                    </mxGeometry>
                </mxCell>
                <mxCell id="fdI8o_jDZppDpGcbBIDu-5" value="" style="group" parent="1" vertex="1" connectable="0">
                    <mxGeometry x="356" y="-905" width="481" height="230" as="geometry"/>
                </mxCell>
                <mxCell id="f6Lb4-4thSL-1vpuTnt4-117" value="transactions" style="whiteSpace=wrap;html=1;align=center;fillColor=#990000;" parent="fdI8o_jDZppDpGcbBIDu-5" vertex="1">
                    <mxGeometry x="156" y="191" width="90" height="39" as="geometry"/>
                </mxCell>
                <mxCell id="WDstANngcAevgCWSg9io-109" value="&lt;u&gt;user_code&lt;/u&gt;" style="ellipse;whiteSpace=wrap;html=1;align=center;" parent="fdI8o_jDZppDpGcbBIDu-5" vertex="1">
                    <mxGeometry x="295" y="157" width="89" height="31" as="geometry"/>
                </mxCell>
                <mxCell id="WDstANngcAevgCWSg9io-110" value="" style="endArrow=none;html=1;rounded=0;" parent="fdI8o_jDZppDpGcbBIDu-5" source="WDstANngcAevgCWSg9io-109" target="f6Lb4-4thSL-1vpuTnt4-117" edge="1">
                    <mxGeometry relative="1" as="geometry">
                        <mxPoint x="66" y="-165" as="sourcePoint"/>
                        <mxPoint x="278" y="192" as="targetPoint"/>
                    </mxGeometry>
                </mxCell>
                <mxCell id="WDstANngcAevgCWSg9io-119" value="&lt;u&gt;inventory_id&lt;/u&gt;" style="ellipse;whiteSpace=wrap;html=1;align=center;" parent="fdI8o_jDZppDpGcbBIDu-5" vertex="1">
                    <mxGeometry x="164" y="66" width="89" height="31" as="geometry"/>
                </mxCell>
                <mxCell id="WDstANngcAevgCWSg9io-120" value="" style="endArrow=none;html=1;rounded=0;" parent="fdI8o_jDZppDpGcbBIDu-5" source="WDstANngcAevgCWSg9io-119" target="f6Lb4-4thSL-1vpuTnt4-117" edge="1">
                    <mxGeometry relative="1" as="geometry">
                        <mxPoint x="39" y="-118" as="sourcePoint"/>
                        <mxPoint x="251" y="239" as="targetPoint"/>
                    </mxGeometry>
                </mxCell>
                <mxCell id="WDstANngcAevgCWSg9io-123" value="&lt;u&gt;transaction_id&lt;/u&gt;" style="ellipse;whiteSpace=wrap;html=1;align=center;" parent="fdI8o_jDZppDpGcbBIDu-5" vertex="1">
                    <mxGeometry y="121" width="107" height="31" as="geometry"/>
                </mxCell>
                <mxCell id="WDstANngcAevgCWSg9io-124" value="" style="endArrow=none;html=1;rounded=0;" parent="fdI8o_jDZppDpGcbBIDu-5" source="WDstANngcAevgCWSg9io-123" target="f6Lb4-4thSL-1vpuTnt4-117" edge="1">
                    <mxGeometry relative="1" as="geometry">
                        <mxPoint x="-183" y="-215" as="sourcePoint"/>
                        <mxPoint x="24" y="114" as="targetPoint"/>
                    </mxGeometry>
                </mxCell>
                <mxCell id="WDstANngcAevgCWSg9io-125" value="transaction_type" style="ellipse;whiteSpace=wrap;html=1;align=center;" parent="fdI8o_jDZppDpGcbBIDu-5" vertex="1">
                    <mxGeometry x="24" y="62" width="107" height="31" as="geometry"/>
                </mxCell>
                <mxCell id="WDstANngcAevgCWSg9io-126" value="" style="endArrow=none;html=1;rounded=0;" parent="fdI8o_jDZppDpGcbBIDu-5" source="WDstANngcAevgCWSg9io-125" target="f6Lb4-4thSL-1vpuTnt4-117" edge="1">
                    <mxGeometry relative="1" as="geometry">
                        <mxPoint x="-173" y="-205" as="sourcePoint"/>
                        <mxPoint x="194" y="201" as="targetPoint"/>
                    </mxGeometry>
                </mxCell>
                <mxCell id="WDstANngcAevgCWSg9io-127" value="transaction_amount" style="ellipse;whiteSpace=wrap;html=1;align=center;" parent="fdI8o_jDZppDpGcbBIDu-5" vertex="1">
                    <mxGeometry x="79" y="11" width="125" height="47" as="geometry"/>
                </mxCell>
                <mxCell id="WDstANngcAevgCWSg9io-128" value="" style="endArrow=none;html=1;rounded=0;" parent="fdI8o_jDZppDpGcbBIDu-5" source="WDstANngcAevgCWSg9io-127" target="f6Lb4-4thSL-1vpuTnt4-117" edge="1">
                    <mxGeometry relative="1" as="geometry">
                        <mxPoint x="-113" y="-271" as="sourcePoint"/>
                        <mxPoint x="254" y="135" as="targetPoint"/>
                    </mxGeometry>
                </mxCell>
                <mxCell id="WDstANngcAevgCWSg9io-131" value="from_act_no" style="ellipse;whiteSpace=wrap;html=1;align=center;" parent="fdI8o_jDZppDpGcbBIDu-5" vertex="1">
                    <mxGeometry x="246" width="89" height="31" as="geometry"/>
                </mxCell>
                <mxCell id="WDstANngcAevgCWSg9io-132" value="to_act_no" style="ellipse;whiteSpace=wrap;html=1;align=center;" parent="fdI8o_jDZppDpGcbBIDu-5" vertex="1">
                    <mxGeometry x="312" y="31" width="89" height="31" as="geometry"/>
                </mxCell>
                <mxCell id="WDstANngcAevgCWSg9io-133" value="" style="endArrow=none;html=1;rounded=0;" parent="fdI8o_jDZppDpGcbBIDu-5" source="WDstANngcAevgCWSg9io-131" target="f6Lb4-4thSL-1vpuTnt4-117" edge="1">
                    <mxGeometry relative="1" as="geometry">
                        <mxPoint x="233" y="6" as="sourcePoint"/>
                        <mxPoint x="213" y="201" as="targetPoint"/>
                    </mxGeometry>
                </mxCell>
                <mxCell id="WDstANngcAevgCWSg9io-134" value="" style="endArrow=none;html=1;rounded=0;" parent="fdI8o_jDZppDpGcbBIDu-5" source="WDstANngcAevgCWSg9io-132" target="f6Lb4-4thSL-1vpuTnt4-117" edge="1">
                    <mxGeometry relative="1" as="geometry">
                        <mxPoint x="301" y="53" as="sourcePoint"/>
                        <mxPoint x="221" y="201" as="targetPoint"/>
                    </mxGeometry>
                </mxCell>
                <mxCell id="WDstANngcAevgCWSg9io-136" value="transaction_time_stamp" style="ellipse;whiteSpace=wrap;html=1;align=center;" parent="fdI8o_jDZppDpGcbBIDu-5" vertex="1">
                    <mxGeometry x="318" y="79" width="163" height="46" as="geometry"/>
                </mxCell>
                <mxCell id="WDstANngcAevgCWSg9io-137" value="" style="endArrow=none;html=1;rounded=0;" parent="fdI8o_jDZppDpGcbBIDu-5" source="WDstANngcAevgCWSg9io-136" target="f6Lb4-4thSL-1vpuTnt4-117" edge="1">
                    <mxGeometry relative="1" as="geometry">
                        <mxPoint x="326" y="96" as="sourcePoint"/>
                        <mxPoint x="243" y="234" as="targetPoint"/>
                    </mxGeometry>
                </mxCell>
                <mxCell id="fdI8o_jDZppDpGcbBIDu-6" value="" style="group" parent="1" vertex="1" connectable="0">
                    <mxGeometry x="1477" y="140" width="417" height="219" as="geometry"/>
                </mxCell>
                <mxCell id="f6Lb4-4thSL-1vpuTnt4-119" value="suppliers" style="whiteSpace=wrap;html=1;align=center;fillColor=#a20025;fontColor=#ffffff;strokeColor=#6F0000;" parent="fdI8o_jDZppDpGcbBIDu-6" vertex="1">
                    <mxGeometry x="157" y="180" width="90" height="39" as="geometry"/>
                </mxCell>
                <mxCell id="WDstANngcAevgCWSg9io-84" value="supplier_name" style="ellipse;whiteSpace=wrap;html=1;align=center;" parent="fdI8o_jDZppDpGcbBIDu-6" vertex="1">
                    <mxGeometry x="35" y="61" width="100" height="40" as="geometry"/>
                </mxCell>
                <mxCell id="WDstANngcAevgCWSg9io-85" value="supplier_id" style="ellipse;whiteSpace=wrap;html=1;align=center;fontStyle=4;" parent="fdI8o_jDZppDpGcbBIDu-6" vertex="1">
                    <mxGeometry x="11" y="106" width="100" height="40" as="geometry"/>
                </mxCell>
                <mxCell id="WDstANngcAevgCWSg9io-88" value="contact_number" style="ellipse;whiteSpace=wrap;html=1;align=center;" parent="fdI8o_jDZppDpGcbBIDu-6" vertex="1">
                    <mxGeometry x="308" y="42" width="100" height="40" as="geometry"/>
                </mxCell>
                <mxCell id="WDstANngcAevgCWSg9io-103" value="&lt;u&gt;inventory_id&lt;/u&gt;" style="ellipse;whiteSpace=wrap;html=1;align=center;" parent="fdI8o_jDZppDpGcbBIDu-6" vertex="1">
                    <mxGeometry x="299" y="145" width="89" height="31" as="geometry"/>
                </mxCell>
                <mxCell id="WDstANngcAevgCWSg9io-104" value="" style="endArrow=none;html=1;rounded=0;" parent="fdI8o_jDZppDpGcbBIDu-6" source="WDstANngcAevgCWSg9io-103" target="f6Lb4-4thSL-1vpuTnt4-119" edge="1">
                    <mxGeometry relative="1" as="geometry">
                        <mxPoint x="35" y="-170" as="sourcePoint"/>
                        <mxPoint x="260" y="175" as="targetPoint"/>
                    </mxGeometry>
                </mxCell>
                <mxCell id="WDstANngcAevgCWSg9io-113" value="" style="endArrow=none;html=1;rounded=0;" parent="fdI8o_jDZppDpGcbBIDu-6" source="WDstANngcAevgCWSg9io-88" target="f6Lb4-4thSL-1vpuTnt4-119" edge="1">
                    <mxGeometry relative="1" as="geometry">
                        <mxPoint x="326" y="131" as="sourcePoint"/>
                        <mxPoint x="240" y="190" as="targetPoint"/>
                    </mxGeometry>
                </mxCell>
                <mxCell id="WDstANngcAevgCWSg9io-115" value="" style="endArrow=none;html=1;rounded=0;" parent="fdI8o_jDZppDpGcbBIDu-6" source="WDstANngcAevgCWSg9io-84" target="f6Lb4-4thSL-1vpuTnt4-119" edge="1">
                    <mxGeometry relative="1" as="geometry">
                        <mxPoint x="209" y="53" as="sourcePoint"/>
                        <mxPoint x="212" y="190" as="targetPoint"/>
                    </mxGeometry>
                </mxCell>
                <mxCell id="WDstANngcAevgCWSg9io-116" value="" style="endArrow=none;html=1;rounded=0;" parent="fdI8o_jDZppDpGcbBIDu-6" source="WDstANngcAevgCWSg9io-85" target="f6Lb4-4thSL-1vpuTnt4-119" edge="1">
                    <mxGeometry relative="1" as="geometry">
                        <mxPoint x="127" y="89" as="sourcePoint"/>
                        <mxPoint x="198" y="190" as="targetPoint"/>
                    </mxGeometry>
                </mxCell>
                <mxCell id="-zDeC7uoWPKwi14UG9ot-3" value="street_address" style="ellipse;whiteSpace=wrap;html=1;align=center;" parent="fdI8o_jDZppDpGcbBIDu-6" vertex="1">
                    <mxGeometry x="61" y="-7" width="100" height="40" as="geometry"/>
                </mxCell>
                <mxCell id="-zDeC7uoWPKwi14UG9ot-5" value="" style="endArrow=none;html=1;rounded=0;" parent="fdI8o_jDZppDpGcbBIDu-6" source="-zDeC7uoWPKwi14UG9ot-3" target="f6Lb4-4thSL-1vpuTnt4-119" edge="1">
                    <mxGeometry relative="1" as="geometry">
                        <mxPoint x="97" y="97" as="sourcePoint"/>
                        <mxPoint x="192" y="190" as="targetPoint"/>
                    </mxGeometry>
                </mxCell>
                <mxCell id="-zDeC7uoWPKwi14UG9ot-13" value="sup_pincode" style="ellipse;whiteSpace=wrap;html=1;align=center;" parent="fdI8o_jDZppDpGcbBIDu-6" vertex="1">
                    <mxGeometry x="301" y="-13" width="85" height="31" as="geometry"/>
                </mxCell>
                <mxCell id="-zDeC7uoWPKwi14UG9ot-15" value="" style="endArrow=none;html=1;rounded=0;" parent="fdI8o_jDZppDpGcbBIDu-6" source="-zDeC7uoWPKwi14UG9ot-13" target="f6Lb4-4thSL-1vpuTnt4-119" edge="1">
                    <mxGeometry relative="1" as="geometry">
                        <mxPoint x="311" y="-24" as="sourcePoint"/>
                        <mxPoint x="389" y="176" as="targetPoint"/>
                    </mxGeometry>
                </mxCell>
                <mxCell id="WDstANngcAevgCWSg9io-87" value="contact_email" style="ellipse;whiteSpace=wrap;html=1;align=center;" parent="fdI8o_jDZppDpGcbBIDu-6" vertex="1">
                    <mxGeometry x="317" y="94" width="100" height="40" as="geometry"/>
                </mxCell>
                <mxCell id="WDstANngcAevgCWSg9io-111" value="" style="endArrow=none;html=1;rounded=0;" parent="fdI8o_jDZppDpGcbBIDu-6" source="WDstANngcAevgCWSg9io-87" target="f6Lb4-4thSL-1vpuTnt4-119" edge="1">
                    <mxGeometry relative="1" as="geometry">
                        <mxPoint x="271" y="131" as="sourcePoint"/>
                        <mxPoint x="210" y="148" as="targetPoint"/>
                    </mxGeometry>
                </mxCell>
                <mxCell id="fdI8o_jDZppDpGcbBIDu-7" value="" style="group;fillColor=none;" parent="1" vertex="1" connectable="0">
                    <mxGeometry x="807" y="-382" width="448" height="281" as="geometry"/>
                </mxCell>
                <mxCell id="f6Lb4-4thSL-1vpuTnt4-118" value="billings" style="whiteSpace=wrap;html=1;align=center;fillColor=#660000;" parent="fdI8o_jDZppDpGcbBIDu-7" vertex="1">
                    <mxGeometry x="164" y="232" width="90" height="39" as="geometry"/>
                </mxCell>
                <mxCell id="WDstANngcAevgCWSg9io-57" value="bill_no" style="ellipse;whiteSpace=wrap;html=1;align=center;fontStyle=4;" parent="fdI8o_jDZppDpGcbBIDu-7" vertex="1">
                    <mxGeometry x="30" y="153" width="100" height="40" as="geometry"/>
                </mxCell>
                <mxCell id="WDstANngcAevgCWSg9io-58" value="" style="endArrow=none;html=1;rounded=0;" parent="fdI8o_jDZppDpGcbBIDu-7" source="WDstANngcAevgCWSg9io-57" target="f6Lb4-4thSL-1vpuTnt4-118" edge="1">
                    <mxGeometry relative="1" as="geometry">
                        <mxPoint x="194" y="-6" as="sourcePoint"/>
                        <mxPoint x="354" y="-6" as="targetPoint"/>
                    </mxGeometry>
                </mxCell>
                <mxCell id="WDstANngcAevgCWSg9io-60" value="" style="endArrow=none;html=1;rounded=0;" parent="fdI8o_jDZppDpGcbBIDu-7" source="WDstANngcAevgCWSg9io-61" target="f6Lb4-4thSL-1vpuTnt4-118" edge="1">
                    <mxGeometry relative="1" as="geometry">
                        <mxPoint x="103.97211169286356" y="142.6633467579736" as="sourcePoint"/>
                        <mxPoint x="227" y="180" as="targetPoint"/>
                    </mxGeometry>
                </mxCell>
                <mxCell id="WDstANngcAevgCWSg9io-62" value="" style="endArrow=none;html=1;rounded=0;" parent="fdI8o_jDZppDpGcbBIDu-7" target="WDstANngcAevgCWSg9io-61" edge="1">
                    <mxGeometry relative="1" as="geometry">
                        <mxPoint x="103.97211169286356" y="142.6633467579736" as="sourcePoint"/>
                        <mxPoint x="190" y="232" as="targetPoint"/>
                    </mxGeometry>
                </mxCell>
                <mxCell id="WDstANngcAevgCWSg9io-61" value="bill_info" style="ellipse;whiteSpace=wrap;html=1;align=center;" parent="fdI8o_jDZppDpGcbBIDu-7" vertex="1">
                    <mxGeometry x="71" y="110" width="100" height="40" as="geometry"/>
                </mxCell>
                <mxCell id="WDstANngcAevgCWSg9io-63" value="" style="endArrow=none;html=1;rounded=0;" parent="fdI8o_jDZppDpGcbBIDu-7" source="WDstANngcAevgCWSg9io-64" target="f6Lb4-4thSL-1vpuTnt4-118" edge="1">
                    <mxGeometry relative="1" as="geometry">
                        <mxPoint x="138.97211169286356" y="106.66334675797361" as="sourcePoint"/>
                        <mxPoint x="224" y="196" as="targetPoint"/>
                    </mxGeometry>
                </mxCell>
                <mxCell id="WDstANngcAevgCWSg9io-64" value="gst_no" style="ellipse;whiteSpace=wrap;html=1;align=center;" parent="fdI8o_jDZppDpGcbBIDu-7" vertex="1">
                    <mxGeometry x="135" y="70" width="100" height="40" as="geometry"/>
                </mxCell>
                <mxCell id="WDstANngcAevgCWSg9io-65" value="" style="endArrow=none;html=1;rounded=0;" parent="fdI8o_jDZppDpGcbBIDu-7" source="WDstANngcAevgCWSg9io-66" target="f6Lb4-4thSL-1vpuTnt4-118" edge="1">
                    <mxGeometry relative="1" as="geometry">
                        <mxPoint x="148.97211169286356" y="116.66334675797361" as="sourcePoint"/>
                        <mxPoint x="210" y="242" as="targetPoint"/>
                    </mxGeometry>
                </mxCell>
                <mxCell id="WDstANngcAevgCWSg9io-66" value="sgst" style="ellipse;whiteSpace=wrap;html=1;align=center;" parent="fdI8o_jDZppDpGcbBIDu-7" vertex="1">
                    <mxGeometry x="270" width="100" height="40" as="geometry"/>
                </mxCell>
                <mxCell id="WDstANngcAevgCWSg9io-67" value="" style="endArrow=none;html=1;rounded=0;" parent="fdI8o_jDZppDpGcbBIDu-7" source="WDstANngcAevgCWSg9io-68" target="f6Lb4-4thSL-1vpuTnt4-118" edge="1">
                    <mxGeometry relative="1" as="geometry">
                        <mxPoint x="319.97211169286356" y="92.66334675797361" as="sourcePoint"/>
                        <mxPoint x="381" y="218" as="targetPoint"/>
                    </mxGeometry>
                </mxCell>
                <mxCell id="WDstANngcAevgCWSg9io-68" value="cgst" style="ellipse;whiteSpace=wrap;html=1;align=center;" parent="fdI8o_jDZppDpGcbBIDu-7" vertex="1">
                    <mxGeometry x="196" y="33" width="100" height="40" as="geometry"/>
                </mxCell>
                <mxCell id="WDstANngcAevgCWSg9io-71" value="" style="endArrow=none;html=1;rounded=0;" parent="fdI8o_jDZppDpGcbBIDu-7" source="WDstANngcAevgCWSg9io-72" target="f6Lb4-4thSL-1vpuTnt4-118" edge="1">
                    <mxGeometry relative="1" as="geometry">
                        <mxPoint x="334.97211169286356" y="204.6633467579736" as="sourcePoint"/>
                        <mxPoint x="396" y="330" as="targetPoint"/>
                    </mxGeometry>
                </mxCell>
                <mxCell id="WDstANngcAevgCWSg9io-72" value="total_amount" style="ellipse;whiteSpace=wrap;html=1;align=center;" parent="fdI8o_jDZppDpGcbBIDu-7" vertex="1">
                    <mxGeometry x="310" y="44" width="100" height="40" as="geometry"/>
                </mxCell>
                <mxCell id="WDstANngcAevgCWSg9io-92" value="billing_timestamp" style="ellipse;whiteSpace=wrap;html=1;align=center;" parent="fdI8o_jDZppDpGcbBIDu-7" vertex="1">
                    <mxGeometry x="348" y="145" width="100" height="40" as="geometry"/>
                </mxCell>
                <mxCell id="WDstANngcAevgCWSg9io-93" value="" style="endArrow=none;html=1;rounded=0;" parent="fdI8o_jDZppDpGcbBIDu-7" source="WDstANngcAevgCWSg9io-92" target="f6Lb4-4thSL-1vpuTnt4-118" edge="1">
                    <mxGeometry relative="1" as="geometry">
                        <mxPoint x="384" y="144" as="sourcePoint"/>
                        <mxPoint x="247" y="242" as="targetPoint"/>
                    </mxGeometry>
                </mxCell>
                <mxCell id="WDstANngcAevgCWSg9io-95" value="&lt;u&gt;inventory_id&lt;/u&gt;" style="ellipse;whiteSpace=wrap;html=1;align=center;" parent="fdI8o_jDZppDpGcbBIDu-7" vertex="1">
                    <mxGeometry x="328" y="200" width="89" height="31" as="geometry"/>
                </mxCell>
                <mxCell id="WDstANngcAevgCWSg9io-96" value="" style="endArrow=none;html=1;rounded=0;" parent="fdI8o_jDZppDpGcbBIDu-7" source="WDstANngcAevgCWSg9io-95" target="f6Lb4-4thSL-1vpuTnt4-118" edge="1">
                    <mxGeometry relative="1" as="geometry">
                        <mxPoint x="29" y="-101" as="sourcePoint"/>
                        <mxPoint x="90" y="-5" as="targetPoint"/>
                    </mxGeometry>
                </mxCell>
                <mxCell id="hGQLWqVLAQc43QKvoWJV-14" value="transaction_id" style="ellipse;whiteSpace=wrap;html=1;align=center;" parent="fdI8o_jDZppDpGcbBIDu-7" vertex="1">
                    <mxGeometry x="22" y="205" width="100" height="40" as="geometry"/>
                </mxCell>
                <mxCell id="hGQLWqVLAQc43QKvoWJV-15" value="" style="endArrow=none;html=1;rounded=0;" parent="fdI8o_jDZppDpGcbBIDu-7" source="hGQLWqVLAQc43QKvoWJV-14" target="f6Lb4-4thSL-1vpuTnt4-118" edge="1">
                    <mxGeometry relative="1" as="geometry">
                        <mxPoint x="-23" y="269" as="sourcePoint"/>
                        <mxPoint x="157" y="239.42808219178073" as="targetPoint"/>
                    </mxGeometry>
                </mxCell>
                <mxCell id="4" value="billing_amount" style="ellipse;whiteSpace=wrap;html=1;align=center;dashed=1;fillColor=none;" vertex="1" parent="fdI8o_jDZppDpGcbBIDu-7">
                    <mxGeometry x="335" y="93" width="100" height="40" as="geometry"/>
                </mxCell>
                <mxCell id="WDstANngcAevgCWSg9io-69" value="" style="endArrow=none;html=1;rounded=0;" parent="fdI8o_jDZppDpGcbBIDu-7" source="4" target="f6Lb4-4thSL-1vpuTnt4-118" edge="1">
                    <mxGeometry relative="1" as="geometry">
                        <mxPoint x="375.97211169286356" y="105.66334675797361" as="sourcePoint"/>
                        <mxPoint x="437" y="231" as="targetPoint"/>
                    </mxGeometry>
                </mxCell>
                <mxCell id="fdI8o_jDZppDpGcbBIDu-8" value="" style="group" parent="1" vertex="1" connectable="0">
                    <mxGeometry x="1979" y="16" width="425" height="281" as="geometry"/>
                </mxCell>
                <mxCell id="f6Lb4-4thSL-1vpuTnt4-124" value="supplier_orders" style="whiteSpace=wrap;html=1;align=center;fillColor=#a20025;fontColor=#ffffff;strokeColor=#6F0000;" parent="fdI8o_jDZppDpGcbBIDu-8" vertex="1">
                    <mxGeometry x="118" y="242" width="96" height="39" as="geometry"/>
                </mxCell>
                <mxCell id="WDstANngcAevgCWSg9io-15" value="sup_order_id" style="ellipse;whiteSpace=wrap;html=1;align=center;fontStyle=4;" parent="fdI8o_jDZppDpGcbBIDu-8" vertex="1">
                    <mxGeometry y="133" width="100" height="40" as="geometry"/>
                </mxCell>
                <mxCell id="WDstANngcAevgCWSg9io-16" value="supplier_id" style="ellipse;whiteSpace=wrap;html=1;align=center;" parent="fdI8o_jDZppDpGcbBIDu-8" vertex="1">
                    <mxGeometry x="28" y="52" width="100" height="40" as="geometry"/>
                </mxCell>
                <mxCell id="WDstANngcAevgCWSg9io-17" value="order_volume" style="ellipse;whiteSpace=wrap;html=1;align=center;" parent="fdI8o_jDZppDpGcbBIDu-8" vertex="1">
                    <mxGeometry x="81" width="100" height="40" as="geometry"/>
                </mxCell>
                <mxCell id="WDstANngcAevgCWSg9io-18" value="total_amount" style="ellipse;whiteSpace=wrap;html=1;align=center;" parent="fdI8o_jDZppDpGcbBIDu-8" vertex="1">
                    <mxGeometry x="144" y="37" width="100" height="40" as="geometry"/>
                </mxCell>
                <mxCell id="WDstANngcAevgCWSg9io-19" value="order_status" style="ellipse;whiteSpace=wrap;html=1;align=center;" parent="fdI8o_jDZppDpGcbBIDu-8" vertex="1">
                    <mxGeometry x="216" width="100" height="40" as="geometry"/>
                </mxCell>
                <mxCell id="WDstANngcAevgCWSg9io-26" value="" style="endArrow=none;html=1;rounded=0;" parent="fdI8o_jDZppDpGcbBIDu-8" source="WDstANngcAevgCWSg9io-19" target="f6Lb4-4thSL-1vpuTnt4-124" edge="1">
                    <mxGeometry relative="1" as="geometry">
                        <mxPoint x="328" y="169" as="sourcePoint"/>
                        <mxPoint x="246" y="208" as="targetPoint"/>
                    </mxGeometry>
                </mxCell>
                <mxCell id="WDstANngcAevgCWSg9io-27" value="" style="endArrow=none;html=1;rounded=0;" parent="fdI8o_jDZppDpGcbBIDu-8" source="WDstANngcAevgCWSg9io-18" target="f6Lb4-4thSL-1vpuTnt4-124" edge="1">
                    <mxGeometry relative="1" as="geometry">
                        <mxPoint x="304" y="127" as="sourcePoint"/>
                        <mxPoint x="224" y="208" as="targetPoint"/>
                    </mxGeometry>
                </mxCell>
                <mxCell id="WDstANngcAevgCWSg9io-28" value="" style="endArrow=none;html=1;rounded=0;" parent="fdI8o_jDZppDpGcbBIDu-8" source="WDstANngcAevgCWSg9io-17" target="f6Lb4-4thSL-1vpuTnt4-124" edge="1">
                    <mxGeometry relative="1" as="geometry">
                        <mxPoint x="314" y="137" as="sourcePoint"/>
                        <mxPoint x="234" y="218" as="targetPoint"/>
                    </mxGeometry>
                </mxCell>
                <mxCell id="WDstANngcAevgCWSg9io-29" value="" style="endArrow=none;html=1;rounded=0;" parent="fdI8o_jDZppDpGcbBIDu-8" source="WDstANngcAevgCWSg9io-16" target="f6Lb4-4thSL-1vpuTnt4-124" edge="1">
                    <mxGeometry relative="1" as="geometry">
                        <mxPoint x="324" y="147" as="sourcePoint"/>
                        <mxPoint x="244" y="228" as="targetPoint"/>
                    </mxGeometry>
                </mxCell>
                <mxCell id="WDstANngcAevgCWSg9io-31" value="" style="endArrow=none;html=1;rounded=0;" parent="fdI8o_jDZppDpGcbBIDu-8" source="WDstANngcAevgCWSg9io-15" target="f6Lb4-4thSL-1vpuTnt4-124" edge="1">
                    <mxGeometry relative="1" as="geometry">
                        <mxPoint x="344" y="167" as="sourcePoint"/>
                        <mxPoint x="264" y="248" as="targetPoint"/>
                    </mxGeometry>
                </mxCell>
                <mxCell id="WDstANngcAevgCWSg9io-44" value="order_time_stamp" style="ellipse;whiteSpace=wrap;html=1;align=center;" parent="fdI8o_jDZppDpGcbBIDu-8" vertex="1">
                    <mxGeometry x="256" y="45" width="123" height="40" as="geometry"/>
                </mxCell>
                <mxCell id="WDstANngcAevgCWSg9io-53" value="" style="endArrow=none;html=1;rounded=0;" parent="fdI8o_jDZppDpGcbBIDu-8" source="WDstANngcAevgCWSg9io-44" target="f6Lb4-4thSL-1vpuTnt4-124" edge="1">
                    <mxGeometry relative="1" as="geometry">
                        <mxPoint x="-218" y="295" as="sourcePoint"/>
                        <mxPoint x="191" y="239" as="targetPoint"/>
                    </mxGeometry>
                </mxCell>
                <mxCell id="WDstANngcAevgCWSg9io-97" value="&lt;u&gt;inventory_id&lt;/u&gt;" style="ellipse;whiteSpace=wrap;html=1;align=center;" parent="fdI8o_jDZppDpGcbBIDu-8" vertex="1">
                    <mxGeometry x="287" y="101" width="89" height="31" as="geometry"/>
                </mxCell>
                <mxCell id="WDstANngcAevgCWSg9io-98" value="" style="endArrow=none;html=1;rounded=0;" parent="fdI8o_jDZppDpGcbBIDu-8" source="WDstANngcAevgCWSg9io-97" target="f6Lb4-4thSL-1vpuTnt4-124" edge="1">
                    <mxGeometry relative="1" as="geometry">
                        <mxPoint x="13" y="-90" as="sourcePoint"/>
                        <mxPoint x="238" y="255" as="targetPoint"/>
                    </mxGeometry>
                </mxCell>
                <mxCell id="-zDeC7uoWPKwi14UG9ot-23" value="transaction_id" style="ellipse;whiteSpace=wrap;html=1;align=center;" parent="fdI8o_jDZppDpGcbBIDu-8" vertex="1">
                    <mxGeometry x="287" y="150" width="100" height="40" as="geometry"/>
                </mxCell>
                <mxCell id="-zDeC7uoWPKwi14UG9ot-24" value="" style="endArrow=none;html=1;rounded=0;" parent="fdI8o_jDZppDpGcbBIDu-8" source="-zDeC7uoWPKwi14UG9ot-23" target="f6Lb4-4thSL-1vpuTnt4-124" edge="1">
                    <mxGeometry relative="1" as="geometry">
                        <mxPoint x="226" y="341" as="sourcePoint"/>
                        <mxPoint x="246" y="323" as="targetPoint"/>
                    </mxGeometry>
                </mxCell>
                <mxCell id="fdI8o_jDZppDpGcbBIDu-9" value="" style="group;" parent="1" vertex="1" connectable="0">
                    <mxGeometry x="1753" y="-936" width="386" height="345" as="geometry"/>
                </mxCell>
                <mxCell id="f6Lb4-4thSL-1vpuTnt4-120" value="product_catalogue" style="whiteSpace=wrap;html=1;align=center;fillColor=#a20025;fontColor=#ffffff;strokeColor=#6F0000;" parent="fdI8o_jDZppDpGcbBIDu-9" vertex="1">
                    <mxGeometry x="137" y="306" width="119" height="39" as="geometry"/>
                </mxCell>
                <mxCell id="f6Lb4-4thSL-1vpuTnt4-191" value="item_code" style="ellipse;whiteSpace=wrap;html=1;align=center;fontStyle=4;" parent="fdI8o_jDZppDpGcbBIDu-9" vertex="1">
                    <mxGeometry y="251" width="100" height="40" as="geometry"/>
                </mxCell>
                <mxCell id="f6Lb4-4thSL-1vpuTnt4-192" value="" style="endArrow=none;html=1;rounded=0;" parent="fdI8o_jDZppDpGcbBIDu-9" source="f6Lb4-4thSL-1vpuTnt4-191" target="f6Lb4-4thSL-1vpuTnt4-120" edge="1">
                    <mxGeometry relative="1" as="geometry">
                        <mxPoint x="103" y="176" as="sourcePoint"/>
                        <mxPoint x="263" y="176" as="targetPoint"/>
                    </mxGeometry>
                </mxCell>
                <mxCell id="f6Lb4-4thSL-1vpuTnt4-193" value="item_category" style="ellipse;whiteSpace=wrap;html=1;align=center;" parent="fdI8o_jDZppDpGcbBIDu-9" vertex="1">
                    <mxGeometry y="177" width="88" height="32" as="geometry"/>
                </mxCell>
                <mxCell id="f6Lb4-4thSL-1vpuTnt4-194" value="" style="endArrow=none;html=1;rounded=0;exitX=0.937;exitY=0.705;exitDx=0;exitDy=0;exitPerimeter=0;" parent="fdI8o_jDZppDpGcbBIDu-9" source="f6Lb4-4thSL-1vpuTnt4-193" target="f6Lb4-4thSL-1vpuTnt4-120" edge="1">
                    <mxGeometry relative="1" as="geometry">
                        <mxPoint x="124" y="210" as="sourcePoint"/>
                        <mxPoint x="284" y="210" as="targetPoint"/>
                    </mxGeometry>
                </mxCell>
                <mxCell id="f6Lb4-4thSL-1vpuTnt4-195" value="product_name" style="ellipse;whiteSpace=wrap;html=1;align=center;" parent="fdI8o_jDZppDpGcbBIDu-9" vertex="1">
                    <mxGeometry x="86" y="50" width="100" height="40" as="geometry"/>
                </mxCell>
                <mxCell id="f6Lb4-4thSL-1vpuTnt4-196" value="product_description" style="ellipse;whiteSpace=wrap;html=1;align=center;" parent="fdI8o_jDZppDpGcbBIDu-9" vertex="1">
                    <mxGeometry x="125" y="-2" width="123" height="40" as="geometry"/>
                </mxCell>
                <mxCell id="f6Lb4-4thSL-1vpuTnt4-198" value="hssn" style="ellipse;whiteSpace=wrap;html=1;align=center;" parent="fdI8o_jDZppDpGcbBIDu-9" vertex="1">
                    <mxGeometry x="197" y="42" width="66" height="24" as="geometry"/>
                </mxCell>
                <mxCell id="f6Lb4-4thSL-1vpuTnt4-199" value="" style="endArrow=none;html=1;rounded=0;" parent="fdI8o_jDZppDpGcbBIDu-9" source="f6Lb4-4thSL-1vpuTnt4-195" target="f6Lb4-4thSL-1vpuTnt4-120" edge="1">
                    <mxGeometry relative="1" as="geometry">
                        <mxPoint x="124" y="210" as="sourcePoint"/>
                        <mxPoint x="284" y="210" as="targetPoint"/>
                    </mxGeometry>
                </mxCell>
                <mxCell id="f6Lb4-4thSL-1vpuTnt4-200" value="" style="endArrow=none;html=1;rounded=0;" parent="fdI8o_jDZppDpGcbBIDu-9" source="f6Lb4-4thSL-1vpuTnt4-196" target="f6Lb4-4thSL-1vpuTnt4-120" edge="1">
                    <mxGeometry relative="1" as="geometry">
                        <mxPoint x="124" y="210" as="sourcePoint"/>
                        <mxPoint x="284" y="210" as="targetPoint"/>
                    </mxGeometry>
                </mxCell>
                <mxCell id="f6Lb4-4thSL-1vpuTnt4-201" value="" style="endArrow=none;html=1;rounded=0;" parent="fdI8o_jDZppDpGcbBIDu-9" source="f6Lb4-4thSL-1vpuTnt4-198" target="f6Lb4-4thSL-1vpuTnt4-120" edge="1">
                    <mxGeometry relative="1" as="geometry">
                        <mxPoint x="124" y="210" as="sourcePoint"/>
                        <mxPoint x="184" y="304" as="targetPoint"/>
                    </mxGeometry>
                </mxCell>
                <mxCell id="f6Lb4-4thSL-1vpuTnt4-202" value="gst_percent" style="ellipse;whiteSpace=wrap;html=1;align=center;" parent="fdI8o_jDZppDpGcbBIDu-9" vertex="1">
                    <mxGeometry x="258" y="97" width="77" height="26" as="geometry"/>
                </mxCell>
                <mxCell id="f6Lb4-4thSL-1vpuTnt4-203" value="cost" style="ellipse;whiteSpace=wrap;html=1;align=center;" parent="fdI8o_jDZppDpGcbBIDu-9" vertex="1">
                    <mxGeometry x="228" y="69" width="54" height="26" as="geometry"/>
                </mxCell>
                <mxCell id="f6Lb4-4thSL-1vpuTnt4-205" value="cost_with_gst" style="ellipse;whiteSpace=wrap;html=1;align=center;dashed=1;" parent="fdI8o_jDZppDpGcbBIDu-9" vertex="1">
                    <mxGeometry x="267" y="128" width="81" height="33" as="geometry"/>
                </mxCell>
                <mxCell id="f6Lb4-4thSL-1vpuTnt4-206" value="" style="endArrow=none;html=1;rounded=0;" parent="fdI8o_jDZppDpGcbBIDu-9" source="f6Lb4-4thSL-1vpuTnt4-203" target="f6Lb4-4thSL-1vpuTnt4-120" edge="1">
                    <mxGeometry relative="1" as="geometry">
                        <mxPoint x="161" y="107" as="sourcePoint"/>
                        <mxPoint x="187" y="307" as="targetPoint"/>
                    </mxGeometry>
                </mxCell>
                <mxCell id="f6Lb4-4thSL-1vpuTnt4-207" value="" style="endArrow=none;html=1;rounded=0;" parent="fdI8o_jDZppDpGcbBIDu-9" source="f6Lb4-4thSL-1vpuTnt4-202" target="f6Lb4-4thSL-1vpuTnt4-120" edge="1">
                    <mxGeometry relative="1" as="geometry">
                        <mxPoint x="220" y="109" as="sourcePoint"/>
                        <mxPoint x="195" y="306" as="targetPoint"/>
                    </mxGeometry>
                </mxCell>
                <mxCell id="f6Lb4-4thSL-1vpuTnt4-208" value="" style="endArrow=none;html=1;rounded=0;" parent="fdI8o_jDZppDpGcbBIDu-9" source="f6Lb4-4thSL-1vpuTnt4-205" target="f6Lb4-4thSL-1vpuTnt4-120" edge="1">
                    <mxGeometry relative="1" as="geometry">
                        <mxPoint x="230" y="119" as="sourcePoint"/>
                        <mxPoint x="205" y="316" as="targetPoint"/>
                    </mxGeometry>
                </mxCell>
                <mxCell id="f6Lb4-4thSL-1vpuTnt4-209" value="&lt;u&gt;inventory_id&lt;/u&gt;" style="ellipse;whiteSpace=wrap;html=1;align=center;" parent="fdI8o_jDZppDpGcbBIDu-9" vertex="1">
                    <mxGeometry x="9" y="215" width="89" height="31" as="geometry"/>
                </mxCell>
                <mxCell id="f6Lb4-4thSL-1vpuTnt4-210" value="" style="endArrow=none;html=1;rounded=0;" parent="fdI8o_jDZppDpGcbBIDu-9" source="f6Lb4-4thSL-1vpuTnt4-209" target="f6Lb4-4thSL-1vpuTnt4-120" edge="1">
                    <mxGeometry relative="1" as="geometry">
                        <mxPoint x="124" y="210" as="sourcePoint"/>
                        <mxPoint x="182" y="301" as="targetPoint"/>
                    </mxGeometry>
                </mxCell>
                <mxCell id="f6Lb4-4thSL-1vpuTnt4-211" value="item_type" style="ellipse;whiteSpace=wrap;html=1;align=center;" parent="fdI8o_jDZppDpGcbBIDu-9" vertex="1">
                    <mxGeometry x="-2" y="136" width="88" height="32" as="geometry"/>
                </mxCell>
                <mxCell id="f6Lb4-4thSL-1vpuTnt4-212" value="" style="endArrow=none;html=1;rounded=0;exitX=0.929;exitY=0.906;exitDx=0;exitDy=0;exitPerimeter=0;" parent="fdI8o_jDZppDpGcbBIDu-9" source="f6Lb4-4thSL-1vpuTnt4-211" target="f6Lb4-4thSL-1vpuTnt4-120" edge="1">
                    <mxGeometry relative="1" as="geometry">
                        <mxPoint x="92" y="204" as="sourcePoint"/>
                        <mxPoint x="180" y="311" as="targetPoint"/>
                    </mxGeometry>
                </mxCell>
                <mxCell id="f6Lb4-4thSL-1vpuTnt4-220" value="last_update" style="ellipse;whiteSpace=wrap;html=1;align=center;" parent="fdI8o_jDZppDpGcbBIDu-9" vertex="1">
                    <mxGeometry x="283" y="164" width="100" height="40" as="geometry"/>
                </mxCell>
                <mxCell id="f6Lb4-4thSL-1vpuTnt4-221" value="" style="endArrow=none;html=1;rounded=0;" parent="fdI8o_jDZppDpGcbBIDu-9" source="f6Lb4-4thSL-1vpuTnt4-220" target="f6Lb4-4thSL-1vpuTnt4-120" edge="1">
                    <mxGeometry relative="1" as="geometry">
                        <mxPoint x="313" y="226" as="sourcePoint"/>
                        <mxPoint x="234" y="311" as="targetPoint"/>
                    </mxGeometry>
                </mxCell>
                <mxCell id="f6Lb4-4thSL-1vpuTnt4-225" value="other_details&lt;br&gt;&lt;font style=&quot;font-size: 8px;&quot;&gt;(jsonb)&lt;/font&gt;" style="ellipse;whiteSpace=wrap;html=1;align=center;" parent="fdI8o_jDZppDpGcbBIDu-9" vertex="1">
                    <mxGeometry x="286" y="214" width="100" height="40" as="geometry"/>
                </mxCell>
                <mxCell id="f6Lb4-4thSL-1vpuTnt4-226" value="" style="endArrow=none;html=1;rounded=0;" parent="fdI8o_jDZppDpGcbBIDu-9" source="f6Lb4-4thSL-1vpuTnt4-225" target="f6Lb4-4thSL-1vpuTnt4-120" edge="1">
                    <mxGeometry relative="1" as="geometry">
                        <mxPoint x="290" y="230" as="sourcePoint"/>
                        <mxPoint x="225" y="311" as="targetPoint"/>
                    </mxGeometry>
                </mxCell>
                <mxCell id="-zDeC7uoWPKwi14UG9ot-1" value="brand" style="ellipse;whiteSpace=wrap;html=1;align=center;" parent="fdI8o_jDZppDpGcbBIDu-9" vertex="1">
                    <mxGeometry x="25" y="91" width="100" height="40" as="geometry"/>
                </mxCell>
                <mxCell id="-zDeC7uoWPKwi14UG9ot-2" value="" style="endArrow=none;html=1;rounded=0;" parent="fdI8o_jDZppDpGcbBIDu-9" source="-zDeC7uoWPKwi14UG9ot-1" target="f6Lb4-4thSL-1vpuTnt4-120" edge="1">
                    <mxGeometry relative="1" as="geometry">
                        <mxPoint x="-95" y="339" as="sourcePoint"/>
                        <mxPoint x="-43" y="435" as="targetPoint"/>
                    </mxGeometry>
                </mxCell>
                <mxCell id="fdI8o_jDZppDpGcbBIDu-10" value="" style="group" parent="1" vertex="1" connectable="0">
                    <mxGeometry x="2284" y="-717" width="386" height="351" as="geometry"/>
                </mxCell>
                <mxCell id="f6Lb4-4thSL-1vpuTnt4-223" value="ordered_products" style="whiteSpace=wrap;html=1;align=center;fillColor=#a20025;fontColor=#ffffff;strokeColor=#6F0000;" parent="fdI8o_jDZppDpGcbBIDu-10" vertex="1">
                    <mxGeometry x="162" y="311" width="100" height="40" as="geometry"/>
                </mxCell>
                <mxCell id="WDstANngcAevgCWSg9io-37" value="&lt;u&gt;cus_order_id&lt;/u&gt;" style="ellipse;whiteSpace=wrap;html=1;align=center;" parent="fdI8o_jDZppDpGcbBIDu-10" vertex="1">
                    <mxGeometry x="5" y="222" width="100" height="40" as="geometry"/>
                </mxCell>
                <mxCell id="WDstANngcAevgCWSg9io-38" value="&lt;u&gt;item_code&lt;/u&gt;" style="ellipse;whiteSpace=wrap;html=1;align=center;" parent="fdI8o_jDZppDpGcbBIDu-10" vertex="1">
                    <mxGeometry x="52" y="103" width="100" height="40" as="geometry"/>
                </mxCell>
                <mxCell id="WDstANngcAevgCWSg9io-39" value="total_amount_with_gst" style="ellipse;whiteSpace=wrap;html=1;align=center;" parent="fdI8o_jDZppDpGcbBIDu-10" vertex="1">
                    <mxGeometry x="233" y="51" width="147" height="40" as="geometry"/>
                </mxCell>
                <mxCell id="WDstANngcAevgCWSg9io-42" value="item_qty" style="ellipse;whiteSpace=wrap;html=1;align=center;" parent="fdI8o_jDZppDpGcbBIDu-10" vertex="1">
                    <mxGeometry x="96" y="61" width="100" height="40" as="geometry"/>
                </mxCell>
                <mxCell id="WDstANngcAevgCWSg9io-48" value="" style="endArrow=none;html=1;rounded=0;" parent="fdI8o_jDZppDpGcbBIDu-10" source="WDstANngcAevgCWSg9io-37" target="f6Lb4-4thSL-1vpuTnt4-223" edge="1">
                    <mxGeometry relative="1" as="geometry">
                        <mxPoint x="159" y="114" as="sourcePoint"/>
                        <mxPoint x="319" y="114" as="targetPoint"/>
                    </mxGeometry>
                </mxCell>
                <mxCell id="WDstANngcAevgCWSg9io-49" value="" style="endArrow=none;html=1;rounded=0;" parent="fdI8o_jDZppDpGcbBIDu-10" source="WDstANngcAevgCWSg9io-38" target="f6Lb4-4thSL-1vpuTnt4-223" edge="1">
                    <mxGeometry relative="1" as="geometry">
                        <mxPoint x="139" y="236" as="sourcePoint"/>
                        <mxPoint x="225" y="287" as="targetPoint"/>
                    </mxGeometry>
                </mxCell>
                <mxCell id="WDstANngcAevgCWSg9io-50" value="" style="endArrow=none;html=1;rounded=0;" parent="fdI8o_jDZppDpGcbBIDu-10" source="WDstANngcAevgCWSg9io-39" target="f6Lb4-4thSL-1vpuTnt4-223" edge="1">
                    <mxGeometry relative="1" as="geometry">
                        <mxPoint x="125" y="165" as="sourcePoint"/>
                        <mxPoint x="199" y="266" as="targetPoint"/>
                    </mxGeometry>
                </mxCell>
                <mxCell id="WDstANngcAevgCWSg9io-51" value="" style="endArrow=none;html=1;rounded=0;" parent="fdI8o_jDZppDpGcbBIDu-10" source="WDstANngcAevgCWSg9io-42" target="f6Lb4-4thSL-1vpuTnt4-223" edge="1">
                    <mxGeometry relative="1" as="geometry">
                        <mxPoint x="202" y="179" as="sourcePoint"/>
                        <mxPoint x="220" y="321" as="targetPoint"/>
                    </mxGeometry>
                </mxCell>
                <mxCell id="WDstANngcAevgCWSg9io-73" value="" style="endArrow=none;html=1;rounded=0;" parent="fdI8o_jDZppDpGcbBIDu-10" source="WDstANngcAevgCWSg9io-74" target="f6Lb4-4thSL-1vpuTnt4-223" edge="1">
                    <mxGeometry relative="1" as="geometry">
                        <mxPoint x="243.97211169286356" y="150.6633467579736" as="sourcePoint"/>
                        <mxPoint x="305" y="276" as="targetPoint"/>
                    </mxGeometry>
                </mxCell>
                <mxCell id="WDstANngcAevgCWSg9io-74" value="hssn" style="ellipse;whiteSpace=wrap;html=1;align=center;" parent="fdI8o_jDZppDpGcbBIDu-10" vertex="1">
                    <mxGeometry x="303" y="95" width="66" height="40" as="geometry"/>
                </mxCell>
                <mxCell id="WDstANngcAevgCWSg9io-75" value="total_amount" style="ellipse;whiteSpace=wrap;html=1;align=center;" parent="fdI8o_jDZppDpGcbBIDu-10" vertex="1">
                    <mxGeometry x="153" y="19" width="100" height="40" as="geometry"/>
                </mxCell>
                <mxCell id="WDstANngcAevgCWSg9io-76" value="" style="endArrow=none;html=1;rounded=0;" parent="fdI8o_jDZppDpGcbBIDu-10" source="WDstANngcAevgCWSg9io-75" target="f6Lb4-4thSL-1vpuTnt4-223" edge="1">
                    <mxGeometry relative="1" as="geometry">
                        <mxPoint x="186" y="99" as="sourcePoint"/>
                        <mxPoint x="346" y="99" as="targetPoint"/>
                    </mxGeometry>
                </mxCell>
                <mxCell id="WDstANngcAevgCWSg9io-77" value="gst_amount" style="ellipse;whiteSpace=wrap;html=1;align=center;" parent="fdI8o_jDZppDpGcbBIDu-10" vertex="1">
                    <mxGeometry x="213" y="93" width="74" height="40" as="geometry"/>
                </mxCell>
                <mxCell id="WDstANngcAevgCWSg9io-78" value="" style="endArrow=none;html=1;rounded=0;" parent="fdI8o_jDZppDpGcbBIDu-10" source="WDstANngcAevgCWSg9io-77" target="f6Lb4-4thSL-1vpuTnt4-223" edge="1">
                    <mxGeometry relative="1" as="geometry">
                        <mxPoint x="240" y="58" as="sourcePoint"/>
                        <mxPoint x="223" y="321" as="targetPoint"/>
                    </mxGeometry>
                </mxCell>
                <mxCell id="hGQLWqVLAQc43QKvoWJV-16" value="&lt;u&gt;inventory_id&lt;/u&gt;" style="ellipse;whiteSpace=wrap;html=1;align=center;" parent="fdI8o_jDZppDpGcbBIDu-10" vertex="1">
                    <mxGeometry x="297" y="282" width="89" height="31" as="geometry"/>
                </mxCell>
                <mxCell id="hGQLWqVLAQc43QKvoWJV-17" value="" style="endArrow=none;html=1;rounded=0;" parent="fdI8o_jDZppDpGcbBIDu-10" source="hGQLWqVLAQc43QKvoWJV-16" target="f6Lb4-4thSL-1vpuTnt4-223" edge="1">
                    <mxGeometry relative="1" as="geometry">
                        <mxPoint x="31" y="93" as="sourcePoint"/>
                        <mxPoint x="252" y="312" as="targetPoint"/>
                    </mxGeometry>
                </mxCell>
                <mxCell id="-zDeC7uoWPKwi14UG9ot-19" value="&lt;u&gt;sup_order_id&lt;/u&gt;" style="ellipse;whiteSpace=wrap;html=1;align=center;" parent="fdI8o_jDZppDpGcbBIDu-10" vertex="1">
                    <mxGeometry x="17" y="170" width="100" height="40" as="geometry"/>
                </mxCell>
                <mxCell id="-zDeC7uoWPKwi14UG9ot-20" value="" style="endArrow=none;html=1;rounded=0;" parent="fdI8o_jDZppDpGcbBIDu-10" source="-zDeC7uoWPKwi14UG9ot-19" target="f6Lb4-4thSL-1vpuTnt4-223" edge="1">
                    <mxGeometry relative="1" as="geometry">
                        <mxPoint x="517" y="300" as="sourcePoint"/>
                        <mxPoint x="530" y="497" as="targetPoint"/>
                    </mxGeometry>
                </mxCell>
                <mxCell id="fdI8o_jDZppDpGcbBIDu-11" value="" style="group" parent="1" vertex="1" connectable="0">
                    <mxGeometry x="1820" y="-327" width="450" height="264" as="geometry"/>
                </mxCell>
                <mxCell id="f6Lb4-4thSL-1vpuTnt4-123" value="customer_orders" style="whiteSpace=wrap;html=1;align=center;fillColor=#a20025;fontColor=#ffffff;strokeColor=#6F0000;" parent="fdI8o_jDZppDpGcbBIDu-11" vertex="1">
                    <mxGeometry x="180" y="225" width="100" height="39" as="geometry"/>
                </mxCell>
                <mxCell id="f6Lb4-4thSL-1vpuTnt4-224" value="cus_order_id" style="ellipse;whiteSpace=wrap;html=1;align=center;fontStyle=4;" parent="fdI8o_jDZppDpGcbBIDu-11" vertex="1">
                    <mxGeometry x="10" y="191" width="100" height="40" as="geometry"/>
                </mxCell>
                <mxCell id="WDstANngcAevgCWSg9io-3" value="customer_details&lt;br&gt;&lt;font style=&quot;font-size: 8px;&quot;&gt;(jsonb)&lt;/font&gt;" style="ellipse;whiteSpace=wrap;html=1;align=center;" parent="fdI8o_jDZppDpGcbBIDu-11" vertex="1">
                    <mxGeometry x="42" y="77" width="100" height="40" as="geometry"/>
                </mxCell>
                <mxCell id="WDstANngcAevgCWSg9io-4" value="order_volume" style="ellipse;whiteSpace=wrap;html=1;align=center;" parent="fdI8o_jDZppDpGcbBIDu-11" vertex="1">
                    <mxGeometry x="94" y="21" width="100" height="40" as="geometry"/>
                </mxCell>
                <mxCell id="WDstANngcAevgCWSg9io-5" value="total_amount" style="ellipse;whiteSpace=wrap;html=1;align=center;" parent="fdI8o_jDZppDpGcbBIDu-11" vertex="1">
                    <mxGeometry x="205" y="32" width="100" height="40" as="geometry"/>
                </mxCell>
                <mxCell id="WDstANngcAevgCWSg9io-6" value="order_status" style="ellipse;whiteSpace=wrap;html=1;align=center;" parent="fdI8o_jDZppDpGcbBIDu-11" vertex="1">
                    <mxGeometry x="260" y="70" width="100" height="40" as="geometry"/>
                </mxCell>
                <mxCell id="WDstANngcAevgCWSg9io-8" value="" style="endArrow=none;html=1;rounded=0;" parent="fdI8o_jDZppDpGcbBIDu-11" source="f6Lb4-4thSL-1vpuTnt4-224" target="f6Lb4-4thSL-1vpuTnt4-123" edge="1">
                    <mxGeometry relative="1" as="geometry">
                        <mxPoint x="420" y="241" as="sourcePoint"/>
                        <mxPoint x="580" y="241" as="targetPoint"/>
                    </mxGeometry>
                </mxCell>
                <mxCell id="WDstANngcAevgCWSg9io-10" value="" style="endArrow=none;html=1;rounded=0;" parent="fdI8o_jDZppDpGcbBIDu-11" source="WDstANngcAevgCWSg9io-3" target="f6Lb4-4thSL-1vpuTnt4-123" edge="1">
                    <mxGeometry relative="1" as="geometry">
                        <mxPoint x="150" y="197" as="sourcePoint"/>
                        <mxPoint x="213" y="245" as="targetPoint"/>
                    </mxGeometry>
                </mxCell>
                <mxCell id="WDstANngcAevgCWSg9io-11" value="" style="endArrow=none;html=1;rounded=0;" parent="fdI8o_jDZppDpGcbBIDu-11" source="WDstANngcAevgCWSg9io-4" target="f6Lb4-4thSL-1vpuTnt4-123" edge="1">
                    <mxGeometry relative="1" as="geometry">
                        <mxPoint x="245" y="114" as="sourcePoint"/>
                        <mxPoint x="230" y="235" as="targetPoint"/>
                    </mxGeometry>
                </mxCell>
                <mxCell id="WDstANngcAevgCWSg9io-12" value="" style="endArrow=none;html=1;rounded=0;" parent="fdI8o_jDZppDpGcbBIDu-11" source="WDstANngcAevgCWSg9io-5" target="f6Lb4-4thSL-1vpuTnt4-123" edge="1">
                    <mxGeometry relative="1" as="geometry">
                        <mxPoint x="255" y="124" as="sourcePoint"/>
                        <mxPoint x="240" y="245" as="targetPoint"/>
                    </mxGeometry>
                </mxCell>
                <mxCell id="WDstANngcAevgCWSg9io-13" value="" style="endArrow=none;html=1;rounded=0;" parent="fdI8o_jDZppDpGcbBIDu-11" source="WDstANngcAevgCWSg9io-6" target="f6Lb4-4thSL-1vpuTnt4-123" edge="1">
                    <mxGeometry relative="1" as="geometry">
                        <mxPoint x="265" y="134" as="sourcePoint"/>
                        <mxPoint x="250" y="255" as="targetPoint"/>
                    </mxGeometry>
                </mxCell>
                <mxCell id="WDstANngcAevgCWSg9io-47" value="" style="endArrow=none;html=1;rounded=0;" parent="fdI8o_jDZppDpGcbBIDu-11" source="WDstANngcAevgCWSg9io-46" target="f6Lb4-4thSL-1vpuTnt4-123" edge="1">
                    <mxGeometry relative="1" as="geometry">
                        <mxPoint x="336.850267964669" y="195.29702035900868" as="sourcePoint"/>
                        <mxPoint x="260" y="235" as="targetPoint"/>
                    </mxGeometry>
                </mxCell>
                <mxCell id="WDstANngcAevgCWSg9io-101" value="inventory_id" style="ellipse;whiteSpace=wrap;html=1;align=center;" parent="fdI8o_jDZppDpGcbBIDu-11" vertex="1">
                    <mxGeometry x="27" y="148" width="89" height="31" as="geometry"/>
                </mxCell>
                <mxCell id="WDstANngcAevgCWSg9io-102" value="" style="endArrow=none;html=1;rounded=0;" parent="fdI8o_jDZppDpGcbBIDu-11" source="WDstANngcAevgCWSg9io-101" target="f6Lb4-4thSL-1vpuTnt4-123" edge="1">
                    <mxGeometry relative="1" as="geometry">
                        <mxPoint x="59" y="17" as="sourcePoint"/>
                        <mxPoint x="284" y="362" as="targetPoint"/>
                    </mxGeometry>
                </mxCell>
                <mxCell id="WDstANngcAevgCWSg9io-46" value="order_time_stamp" style="ellipse;whiteSpace=wrap;html=1;align=center;" parent="fdI8o_jDZppDpGcbBIDu-11" vertex="1">
                    <mxGeometry x="298" y="120" width="123" height="40" as="geometry"/>
                </mxCell>
                <mxCell id="-zDeC7uoWPKwi14UG9ot-21" value="transaction_id" style="ellipse;whiteSpace=wrap;html=1;align=center;" parent="fdI8o_jDZppDpGcbBIDu-11" vertex="1">
                    <mxGeometry x="305" y="182" width="100" height="40" as="geometry"/>
                </mxCell>
                <mxCell id="-zDeC7uoWPKwi14UG9ot-22" value="" style="endArrow=none;html=1;rounded=0;" parent="fdI8o_jDZppDpGcbBIDu-11" source="-zDeC7uoWPKwi14UG9ot-21" target="f6Lb4-4thSL-1vpuTnt4-123" edge="1">
                    <mxGeometry relative="1" as="geometry">
                        <mxPoint x="260" y="246" as="sourcePoint"/>
                        <mxPoint x="447" y="220" as="targetPoint"/>
                    </mxGeometry>
                </mxCell>
                <mxCell id="fdI8o_jDZppDpGcbBIDu-15" style="edgeStyle=orthogonalEdgeStyle;rounded=0;orthogonalLoop=1;jettySize=auto;html=1;" parent="1" source="fdI8o_jDZppDpGcbBIDu-12" target="f6Lb4-4thSL-1vpuTnt4-116" edge="1">
                    <mxGeometry relative="1" as="geometry">
                        <Array as="points">
                            <mxPoint x="1138" y="-603"/>
                        </Array>
                    </mxGeometry>
                </mxCell>
                <mxCell id="fdI8o_jDZppDpGcbBIDu-12" value="having" style="shape=rhombus;perimeter=rhombusPerimeter;whiteSpace=wrap;html=1;align=center;" parent="1" vertex="1">
                    <mxGeometry x="1078" y="-723" width="120" height="60" as="geometry"/>
                </mxCell>
                <mxCell id="fdI8o_jDZppDpGcbBIDu-14" style="edgeStyle=orthogonalEdgeStyle;rounded=0;orthogonalLoop=1;jettySize=auto;html=1;" parent="1" source="f6Lb4-4thSL-1vpuTnt4-115" target="fdI8o_jDZppDpGcbBIDu-12" edge="1">
                    <mxGeometry relative="1" as="geometry"/>
                </mxCell>
                <mxCell id="fdI8o_jDZppDpGcbBIDu-40" style="edgeStyle=orthogonalEdgeStyle;rounded=0;orthogonalLoop=1;jettySize=auto;html=1;" parent="1" source="fdI8o_jDZppDpGcbBIDu-38" target="f6Lb4-4thSL-1vpuTnt4-118" edge="1">
                    <mxGeometry relative="1" as="geometry"/>
                </mxCell>
                <mxCell id="fdI8o_jDZppDpGcbBIDu-41" style="edgeStyle=orthogonalEdgeStyle;rounded=0;orthogonalLoop=1;jettySize=auto;html=1;" parent="1" source="fdI8o_jDZppDpGcbBIDu-38" target="f6Lb4-4thSL-1vpuTnt4-123" edge="1">
                    <mxGeometry relative="1" as="geometry">
                        <mxPoint x="1686.1176470588234" y="-278.9411764705883" as="targetPoint"/>
                        <Array as="points">
                            <mxPoint x="2040" y="-33"/>
                        </Array>
                    </mxGeometry>
                </mxCell>
                <mxCell id="fdI8o_jDZppDpGcbBIDu-42" style="edgeStyle=orthogonalEdgeStyle;rounded=0;orthogonalLoop=1;jettySize=auto;html=1;" parent="1" source="fdI8o_jDZppDpGcbBIDu-38" target="f6Lb4-4thSL-1vpuTnt4-124" edge="1">
                    <mxGeometry relative="1" as="geometry">
                        <Array as="points">
                            <mxPoint x="1439" y="52"/>
                            <mxPoint x="1905" y="52"/>
                            <mxPoint x="1905" y="270"/>
                        </Array>
                    </mxGeometry>
                </mxCell>
                <mxCell id="fdI8o_jDZppDpGcbBIDu-46" style="edgeStyle=orthogonalEdgeStyle;rounded=0;orthogonalLoop=1;jettySize=auto;html=1;" parent="1" source="fdI8o_jDZppDpGcbBIDu-38" target="f6Lb4-4thSL-1vpuTnt4-223" edge="1">
                    <mxGeometry relative="1" as="geometry">
                        <Array as="points">
                            <mxPoint x="1776" y="-33"/>
                            <mxPoint x="1776" y="-370"/>
                        </Array>
                    </mxGeometry>
                </mxCell>
                <mxCell id="hGQLWqVLAQc43QKvoWJV-19" style="edgeStyle=orthogonalEdgeStyle;rounded=0;orthogonalLoop=1;jettySize=auto;html=1;" parent="1" source="fdI8o_jDZppDpGcbBIDu-38" target="f6Lb4-4thSL-1vpuTnt4-120" edge="1">
                    <mxGeometry relative="1" as="geometry">
                        <Array as="points">
                            <mxPoint x="1718" y="-33"/>
                            <mxPoint x="1718" y="-430"/>
                            <mxPoint x="1948" y="-430"/>
                        </Array>
                    </mxGeometry>
                </mxCell>
                <mxCell id="hGQLWqVLAQc43QKvoWJV-20" style="edgeStyle=orthogonalEdgeStyle;rounded=0;orthogonalLoop=1;jettySize=auto;html=1;" parent="1" source="fdI8o_jDZppDpGcbBIDu-38" target="f6Lb4-4thSL-1vpuTnt4-119" edge="1">
                    <mxGeometry relative="1" as="geometry">
                        <Array as="points">
                            <mxPoint x="1439" y="415"/>
                            <mxPoint x="1642" y="415"/>
                        </Array>
                    </mxGeometry>
                </mxCell>
                <mxCell id="hGQLWqVLAQc43QKvoWJV-23" style="edgeStyle=orthogonalEdgeStyle;rounded=0;orthogonalLoop=1;jettySize=auto;html=1;" parent="1" source="fdI8o_jDZppDpGcbBIDu-38" target="hGQLWqVLAQc43QKvoWJV-22" edge="1">
                    <mxGeometry relative="1" as="geometry">
                        <Array as="points">
                            <mxPoint x="1439" y="520"/>
                            <mxPoint x="2883" y="520"/>
                        </Array>
                    </mxGeometry>
                </mxCell>
                <mxCell id="fdI8o_jDZppDpGcbBIDu-38" value="identifies" style="shape=rhombus;perimeter=rhombusPerimeter;whiteSpace=wrap;html=1;align=center;" parent="1" vertex="1">
                    <mxGeometry x="1379" y="-63" width="120" height="60" as="geometry"/>
                </mxCell>
                <mxCell id="fdI8o_jDZppDpGcbBIDu-39" style="edgeStyle=orthogonalEdgeStyle;rounded=0;orthogonalLoop=1;jettySize=auto;html=1;" parent="1" source="f6Lb4-4thSL-1vpuTnt4-116" target="fdI8o_jDZppDpGcbBIDu-38" edge="1">
                    <mxGeometry relative="1" as="geometry"/>
                </mxCell>
                <mxCell id="fdI8o_jDZppDpGcbBIDu-50" style="edgeStyle=orthogonalEdgeStyle;rounded=0;orthogonalLoop=1;jettySize=auto;html=1;" parent="1" source="fdI8o_jDZppDpGcbBIDu-45" target="f6Lb4-4thSL-1vpuTnt4-223" edge="1">
                    <mxGeometry relative="1" as="geometry"/>
                </mxCell>
                <mxCell id="fdI8o_jDZppDpGcbBIDu-45" value="products_stored_in" style="shape=rhombus;perimeter=rhombusPerimeter;whiteSpace=wrap;html=1;align=center;" parent="1" vertex="1">
                    <mxGeometry x="2386" y="-54" width="120" height="60" as="geometry"/>
                </mxCell>
                <mxCell id="fdI8o_jDZppDpGcbBIDu-47" style="edgeStyle=orthogonalEdgeStyle;rounded=0;orthogonalLoop=1;jettySize=auto;html=1;" parent="1" source="f6Lb4-4thSL-1vpuTnt4-124" target="fdI8o_jDZppDpGcbBIDu-45" edge="1">
                    <mxGeometry relative="1" as="geometry"/>
                </mxCell>
                <mxCell id="fdI8o_jDZppDpGcbBIDu-49" style="edgeStyle=orthogonalEdgeStyle;rounded=0;orthogonalLoop=1;jettySize=auto;html=1;" parent="1" source="f6Lb4-4thSL-1vpuTnt4-123" target="fdI8o_jDZppDpGcbBIDu-45" edge="1">
                    <mxGeometry relative="1" as="geometry">
                        <Array as="points">
                            <mxPoint x="2075" y="-28"/>
                        </Array>
                    </mxGeometry>
                </mxCell>
                <mxCell id="fdI8o_jDZppDpGcbBIDu-53" style="edgeStyle=orthogonalEdgeStyle;rounded=0;orthogonalLoop=1;jettySize=auto;html=1;" parent="1" source="fdI8o_jDZppDpGcbBIDu-51" target="f6Lb4-4thSL-1vpuTnt4-223" edge="1">
                    <mxGeometry relative="1" as="geometry">
                        <Array as="points">
                            <mxPoint x="2098" y="-394"/>
                        </Array>
                    </mxGeometry>
                </mxCell>
                <mxCell id="hGQLWqVLAQc43QKvoWJV-39" style="edgeStyle=orthogonalEdgeStyle;rounded=0;orthogonalLoop=1;jettySize=auto;html=1;" parent="1" source="fdI8o_jDZppDpGcbBIDu-51" target="hGQLWqVLAQc43QKvoWJV-22" edge="1">
                    <mxGeometry relative="1" as="geometry">
                        <mxPoint x="2817" y="64" as="targetPoint"/>
                        <Array as="points">
                            <mxPoint x="2237" y="-520"/>
                            <mxPoint x="2237" y="-760"/>
                            <mxPoint x="3121" y="-760"/>
                            <mxPoint x="3121" y="204"/>
                        </Array>
                    </mxGeometry>
                </mxCell>
                <mxCell id="fdI8o_jDZppDpGcbBIDu-51" value="identifies_items_in" style="shape=rhombus;perimeter=rhombusPerimeter;whiteSpace=wrap;html=1;align=center;" parent="1" vertex="1">
                    <mxGeometry x="2027" y="-551" width="140" height="60" as="geometry"/>
                </mxCell>
                <mxCell id="fdI8o_jDZppDpGcbBIDu-52" style="edgeStyle=orthogonalEdgeStyle;rounded=0;orthogonalLoop=1;jettySize=auto;html=1;" parent="1" source="f6Lb4-4thSL-1vpuTnt4-120" target="fdI8o_jDZppDpGcbBIDu-51" edge="1">
                    <mxGeometry relative="1" as="geometry"/>
                </mxCell>
                <mxCell id="hGQLWqVLAQc43QKvoWJV-6" style="edgeStyle=orthogonalEdgeStyle;rounded=0;orthogonalLoop=1;jettySize=auto;html=1;" parent="1" source="hGQLWqVLAQc43QKvoWJV-4" target="f6Lb4-4thSL-1vpuTnt4-117" edge="1">
                    <mxGeometry relative="1" as="geometry"/>
                </mxCell>
                <mxCell id="hGQLWqVLAQc43QKvoWJV-4" value="make_transact" style="shape=rhombus;perimeter=rhombusPerimeter;whiteSpace=wrap;html=1;align=center;" parent="1" vertex="1">
                    <mxGeometry x="908" y="-724" width="120" height="60" as="geometry"/>
                </mxCell>
                <mxCell id="hGQLWqVLAQc43QKvoWJV-5" style="edgeStyle=orthogonalEdgeStyle;rounded=0;orthogonalLoop=1;jettySize=auto;html=1;" parent="1" source="f6Lb4-4thSL-1vpuTnt4-115" target="hGQLWqVLAQc43QKvoWJV-4" edge="1">
                    <mxGeometry relative="1" as="geometry"/>
                </mxCell>
                <mxCell id="hGQLWqVLAQc43QKvoWJV-12" style="edgeStyle=orthogonalEdgeStyle;rounded=0;orthogonalLoop=1;jettySize=auto;html=1;" parent="1" source="hGQLWqVLAQc43QKvoWJV-7" target="f6Lb4-4thSL-1vpuTnt4-117" edge="1">
                    <mxGeometry relative="1" as="geometry"/>
                </mxCell>
                <mxCell id="hGQLWqVLAQc43QKvoWJV-7" value="identifies_transaction" style="shape=rhombus;perimeter=rhombusPerimeter;whiteSpace=wrap;html=1;align=center;" parent="1" vertex="1">
                    <mxGeometry x="897" y="-623" width="145" height="66" as="geometry"/>
                </mxCell>
                <mxCell id="hGQLWqVLAQc43QKvoWJV-8" style="edgeStyle=orthogonalEdgeStyle;rounded=0;orthogonalLoop=1;jettySize=auto;html=1;" parent="1" source="f6Lb4-4thSL-1vpuTnt4-116" target="hGQLWqVLAQc43QKvoWJV-7" edge="1">
                    <mxGeometry relative="1" as="geometry">
                        <Array as="points">
                            <mxPoint x="1365" y="-533"/>
                            <mxPoint x="970" y="-533"/>
                        </Array>
                    </mxGeometry>
                </mxCell>
                <mxCell id="hGQLWqVLAQc43QKvoWJV-38" value="" style="group" parent="1" vertex="1" connectable="0">
                    <mxGeometry x="2673" y="-41" width="416" height="265" as="geometry"/>
                </mxCell>
                <mxCell id="hGQLWqVLAQc43QKvoWJV-22" value="stock_count" style="whiteSpace=wrap;html=1;align=center;fillColor=#a20025;fontColor=#ffffff;strokeColor=#6F0000;" parent="hGQLWqVLAQc43QKvoWJV-38" vertex="1">
                    <mxGeometry x="160" y="225" width="100" height="40" as="geometry"/>
                </mxCell>
                <mxCell id="hGQLWqVLAQc43QKvoWJV-24" value="item_code" style="ellipse;whiteSpace=wrap;html=1;align=center;fontStyle=4;" parent="hGQLWqVLAQc43QKvoWJV-38" vertex="1">
                    <mxGeometry y="152" width="100" height="40" as="geometry"/>
                </mxCell>
                <mxCell id="hGQLWqVLAQc43QKvoWJV-25" value="inventory_id" style="ellipse;whiteSpace=wrap;html=1;align=center;fontStyle=4;" parent="hGQLWqVLAQc43QKvoWJV-38" vertex="1">
                    <mxGeometry x="10" y="89" width="100" height="40" as="geometry"/>
                </mxCell>
                <mxCell id="hGQLWqVLAQc43QKvoWJV-26" value="" style="endArrow=none;html=1;rounded=0;" parent="hGQLWqVLAQc43QKvoWJV-38" source="hGQLWqVLAQc43QKvoWJV-24" target="hGQLWqVLAQc43QKvoWJV-22" edge="1">
                    <mxGeometry relative="1" as="geometry">
                        <mxPoint x="-32" y="-55" as="sourcePoint"/>
                        <mxPoint x="128" y="-55" as="targetPoint"/>
                    </mxGeometry>
                </mxCell>
                <mxCell id="hGQLWqVLAQc43QKvoWJV-27" value="" style="endArrow=none;html=1;rounded=0;" parent="hGQLWqVLAQc43QKvoWJV-38" source="hGQLWqVLAQc43QKvoWJV-25" target="hGQLWqVLAQc43QKvoWJV-22" edge="1">
                    <mxGeometry relative="1" as="geometry">
                        <mxPoint x="93" y="197" as="sourcePoint"/>
                        <mxPoint x="176" y="235" as="targetPoint"/>
                    </mxGeometry>
                </mxCell>
                <mxCell id="hGQLWqVLAQc43QKvoWJV-28" value="quantity" style="ellipse;whiteSpace=wrap;html=1;align=center;" parent="hGQLWqVLAQc43QKvoWJV-38" vertex="1">
                    <mxGeometry x="52" y="40" width="100" height="40" as="geometry"/>
                </mxCell>
                <mxCell id="hGQLWqVLAQc43QKvoWJV-29" value="last_update_timestamp" style="ellipse;whiteSpace=wrap;html=1;align=center;" parent="hGQLWqVLAQc43QKvoWJV-38" vertex="1">
                    <mxGeometry x="198" y="45" width="153" height="60" as="geometry"/>
                </mxCell>
                <mxCell id="hGQLWqVLAQc43QKvoWJV-30" value="last_change_in_qty" style="ellipse;whiteSpace=wrap;html=1;align=center;" parent="hGQLWqVLAQc43QKvoWJV-38" vertex="1">
                    <mxGeometry x="122" width="119" height="44" as="geometry"/>
                </mxCell>
                <mxCell id="hGQLWqVLAQc43QKvoWJV-31" value="" style="endArrow=none;html=1;rounded=0;" parent="hGQLWqVLAQc43QKvoWJV-38" source="hGQLWqVLAQc43QKvoWJV-28" target="hGQLWqVLAQc43QKvoWJV-22" edge="1">
                    <mxGeometry relative="1" as="geometry">
                        <mxPoint x="135" y="-125" as="sourcePoint"/>
                        <mxPoint x="295" y="-125" as="targetPoint"/>
                    </mxGeometry>
                </mxCell>
                <mxCell id="hGQLWqVLAQc43QKvoWJV-32" value="" style="endArrow=none;html=1;rounded=0;" parent="hGQLWqVLAQc43QKvoWJV-38" source="hGQLWqVLAQc43QKvoWJV-30" target="hGQLWqVLAQc43QKvoWJV-22" edge="1">
                    <mxGeometry relative="1" as="geometry">
                        <mxPoint x="123" y="89" as="sourcePoint"/>
                        <mxPoint x="208" y="235" as="targetPoint"/>
                    </mxGeometry>
                </mxCell>
                <mxCell id="hGQLWqVLAQc43QKvoWJV-33" value="" style="endArrow=none;html=1;rounded=0;" parent="hGQLWqVLAQc43QKvoWJV-38" source="hGQLWqVLAQc43QKvoWJV-29" target="hGQLWqVLAQc43QKvoWJV-22" edge="1">
                    <mxGeometry relative="1" as="geometry">
                        <mxPoint x="231" y="73" as="sourcePoint"/>
                        <mxPoint x="221" y="235" as="targetPoint"/>
                    </mxGeometry>
                </mxCell>
                <mxCell id="hGQLWqVLAQc43QKvoWJV-47" style="edgeStyle=orthogonalEdgeStyle;rounded=0;orthogonalLoop=1;jettySize=auto;html=1;" parent="1" source="hGQLWqVLAQc43QKvoWJV-44" target="f6Lb4-4thSL-1vpuTnt4-119" edge="1">
                    <mxGeometry relative="1" as="geometry">
                        <Array as="points">
                            <mxPoint x="1680" y="421"/>
                        </Array>
                    </mxGeometry>
                </mxCell>
                <mxCell id="hGQLWqVLAQc43QKvoWJV-44" value="were_given_to" style="shape=rhombus;perimeter=rhombusPerimeter;whiteSpace=wrap;html=1;align=center;" parent="1" vertex="1">
                    <mxGeometry x="1858" y="391" width="120" height="60" as="geometry"/>
                </mxCell>
                <mxCell id="hGQLWqVLAQc43QKvoWJV-45" style="edgeStyle=orthogonalEdgeStyle;rounded=0;orthogonalLoop=1;jettySize=auto;html=1;" parent="1" source="f6Lb4-4thSL-1vpuTnt4-124" target="hGQLWqVLAQc43QKvoWJV-44" edge="1">
                    <mxGeometry relative="1" as="geometry">
                        <Array as="points">
                            <mxPoint x="2146" y="421"/>
                        </Array>
                    </mxGeometry>
                </mxCell>
                <mxCell id="-zDeC7uoWPKwi14UG9ot-6" value="sup_city" style="ellipse;whiteSpace=wrap;html=1;align=center;" parent="1" vertex="1">
                    <mxGeometry x="1596" y="100" width="85" height="31" as="geometry"/>
                </mxCell>
                <mxCell id="-zDeC7uoWPKwi14UG9ot-7" value="" style="endArrow=none;html=1;rounded=0;" parent="1" source="-zDeC7uoWPKwi14UG9ot-6" target="f6Lb4-4thSL-1vpuTnt4-119" edge="1">
                    <mxGeometry relative="1" as="geometry">
                        <mxPoint x="1560" y="159" as="sourcePoint"/>
                        <mxPoint x="1655" y="242" as="targetPoint"/>
                    </mxGeometry>
                </mxCell>
                <mxCell id="-zDeC7uoWPKwi14UG9ot-8" value="sup_state" style="ellipse;whiteSpace=wrap;html=1;align=center;" parent="1" vertex="1">
                    <mxGeometry x="1646" y="57" width="85" height="31" as="geometry"/>
                </mxCell>
                <mxCell id="-zDeC7uoWPKwi14UG9ot-9" value="" style="endArrow=none;html=1;rounded=0;" parent="1" source="-zDeC7uoWPKwi14UG9ot-8" target="f6Lb4-4thSL-1vpuTnt4-119" edge="1">
                    <mxGeometry relative="1" as="geometry">
                        <mxPoint x="1570" y="169" as="sourcePoint"/>
                        <mxPoint x="1666" y="324" as="targetPoint"/>
                    </mxGeometry>
                </mxCell>
                <mxCell id="-zDeC7uoWPKwi14UG9ot-10" value="sup_country" style="ellipse;whiteSpace=wrap;html=1;align=center;" parent="1" vertex="1">
                    <mxGeometry x="1725" y="85" width="85" height="31" as="geometry"/>
                </mxCell>
                <mxCell id="-zDeC7uoWPKwi14UG9ot-11" value="" style="endArrow=none;html=1;rounded=0;" parent="1" source="-zDeC7uoWPKwi14UG9ot-10" target="f6Lb4-4thSL-1vpuTnt4-119" edge="1">
                    <mxGeometry relative="1" as="geometry">
                        <mxPoint x="1648" y="163" as="sourcePoint"/>
                        <mxPoint x="1744" y="318" as="targetPoint"/>
                    </mxGeometry>
                </mxCell>
                <mxCell id="-zDeC7uoWPKwi14UG9ot-18" style="edgeStyle=orthogonalEdgeStyle;rounded=0;orthogonalLoop=1;jettySize=auto;html=1;" parent="1" source="-zDeC7uoWPKwi14UG9ot-16" target="f6Lb4-4thSL-1vpuTnt4-118" edge="1">
                    <mxGeometry relative="1" as="geometry"/>
                </mxCell>
                <mxCell id="-zDeC7uoWPKwi14UG9ot-16" value="on_completion" style="shape=rhombus;perimeter=rhombusPerimeter;whiteSpace=wrap;html=1;align=center;" parent="1" vertex="1">
                    <mxGeometry x="570" y="-143" width="120" height="60" as="geometry"/>
                </mxCell>
                <mxCell id="-zDeC7uoWPKwi14UG9ot-17" style="edgeStyle=orthogonalEdgeStyle;rounded=0;orthogonalLoop=1;jettySize=auto;html=1;" parent="1" source="f6Lb4-4thSL-1vpuTnt4-117" target="-zDeC7uoWPKwi14UG9ot-16" edge="1">
                    <mxGeometry relative="1" as="geometry">
                        <Array as="points">
                            <mxPoint x="534" y="-409"/>
                            <mxPoint x="630" y="-409"/>
                        </Array>
                    </mxGeometry>
                </mxCell>
            </root>
        </mxGraphModel>
    </diagram>
</mxfile>